%TF.GenerationSoftware,KiCad,Pcbnew,(5.1.9)-1*%
%TF.CreationDate,2021-04-19T10:41:21+09:00*%
%TF.ProjectId,Air_Pollution_Sensor,4169725f-506f-46c6-9c75-74696f6e5f53,rev?*%
%TF.SameCoordinates,Original*%
%TF.FileFunction,Paste,Top*%
%TF.FilePolarity,Positive*%
%FSLAX46Y46*%
G04 Gerber Fmt 4.6, Leading zero omitted, Abs format (unit mm)*
G04 Created by KiCad (PCBNEW (5.1.9)-1) date 2021-04-19 10:41:21*
%MOMM*%
%LPD*%
G01*
G04 APERTURE LIST*
%ADD10C,0.010000*%
%ADD11R,0.812800X0.254000*%
%ADD12R,1.500000X2.000000*%
%ADD13R,3.800000X2.000000*%
%ADD14R,1.981200X0.558800*%
%ADD15R,2.000000X1.500000*%
%ADD16R,2.000000X3.800000*%
%ADD17R,1.200000X1.000000*%
%ADD18R,0.990000X3.790000*%
%ADD19R,2.500000X1.000000*%
%ADD20R,1.000000X1.800000*%
%ADD21R,0.500000X0.300000*%
%ADD22R,0.350000X0.800000*%
%ADD23R,1.150000X1.450000*%
%ADD24R,1.750000X1.900000*%
%ADD25R,0.400000X1.400000*%
G04 APERTURE END LIST*
D10*
%TO.C,U1*%
G36*
X121875200Y-134565000D02*
G01*
X121875200Y-136015000D01*
X120615200Y-136015000D01*
X120615200Y-134565000D01*
X121875200Y-134565000D01*
G37*
X121875200Y-134565000D02*
X121875200Y-136015000D01*
X120615200Y-136015000D01*
X120615200Y-134565000D01*
X121875200Y-134565000D01*
G36*
X123675200Y-134565000D02*
G01*
X123675200Y-136015000D01*
X122415200Y-136015000D01*
X122415200Y-134565000D01*
X123675200Y-134565000D01*
G37*
X123675200Y-134565000D02*
X123675200Y-136015000D01*
X122415200Y-136015000D01*
X122415200Y-134565000D01*
X123675200Y-134565000D01*
G36*
X125475200Y-134565000D02*
G01*
X125475200Y-136015000D01*
X124215200Y-136015000D01*
X124215200Y-134565000D01*
X125475200Y-134565000D01*
G37*
X125475200Y-134565000D02*
X125475200Y-136015000D01*
X124215200Y-136015000D01*
X124215200Y-134565000D01*
X125475200Y-134565000D01*
G36*
X120075200Y-134565000D02*
G01*
X120075200Y-136015000D01*
X118815200Y-136015000D01*
X118815200Y-134565000D01*
X120075200Y-134565000D01*
G37*
X120075200Y-134565000D02*
X120075200Y-136015000D01*
X118815200Y-136015000D01*
X118815200Y-134565000D01*
X120075200Y-134565000D01*
G36*
X118275200Y-134565000D02*
G01*
X118275200Y-136015000D01*
X117015200Y-136015000D01*
X117015200Y-134565000D01*
X118275200Y-134565000D01*
G37*
X118275200Y-134565000D02*
X118275200Y-136015000D01*
X117015200Y-136015000D01*
X117015200Y-134565000D01*
X118275200Y-134565000D01*
G36*
X116475200Y-134565000D02*
G01*
X116475200Y-136015000D01*
X115215200Y-136015000D01*
X115215200Y-134565000D01*
X116475200Y-134565000D01*
G37*
X116475200Y-134565000D02*
X116475200Y-136015000D01*
X115215200Y-136015000D01*
X115215200Y-134565000D01*
X116475200Y-134565000D01*
G36*
X121875200Y-137105000D02*
G01*
X121875200Y-138555000D01*
X120615200Y-138555000D01*
X120615200Y-137105000D01*
X121875200Y-137105000D01*
G37*
X121875200Y-137105000D02*
X121875200Y-138555000D01*
X120615200Y-138555000D01*
X120615200Y-137105000D01*
X121875200Y-137105000D01*
G36*
X123675200Y-137105000D02*
G01*
X123675200Y-138555000D01*
X122415200Y-138555000D01*
X122415200Y-137105000D01*
X123675200Y-137105000D01*
G37*
X123675200Y-137105000D02*
X123675200Y-138555000D01*
X122415200Y-138555000D01*
X122415200Y-137105000D01*
X123675200Y-137105000D01*
G36*
X125475200Y-137105000D02*
G01*
X125475200Y-138555000D01*
X124215200Y-138555000D01*
X124215200Y-137105000D01*
X125475200Y-137105000D01*
G37*
X125475200Y-137105000D02*
X125475200Y-138555000D01*
X124215200Y-138555000D01*
X124215200Y-137105000D01*
X125475200Y-137105000D01*
G36*
X120075200Y-137105000D02*
G01*
X120075200Y-138555000D01*
X118815200Y-138555000D01*
X118815200Y-137105000D01*
X120075200Y-137105000D01*
G37*
X120075200Y-137105000D02*
X120075200Y-138555000D01*
X118815200Y-138555000D01*
X118815200Y-137105000D01*
X120075200Y-137105000D01*
G36*
X118275200Y-137105000D02*
G01*
X118275200Y-138555000D01*
X117015200Y-138555000D01*
X117015200Y-137105000D01*
X118275200Y-137105000D01*
G37*
X118275200Y-137105000D02*
X118275200Y-138555000D01*
X117015200Y-138555000D01*
X117015200Y-137105000D01*
X118275200Y-137105000D01*
G36*
X116475200Y-137105000D02*
G01*
X116475200Y-138555000D01*
X115215200Y-138555000D01*
X115215200Y-137105000D01*
X116475200Y-137105000D01*
G37*
X116475200Y-137105000D02*
X116475200Y-138555000D01*
X115215200Y-138555000D01*
X115215200Y-137105000D01*
X116475200Y-137105000D01*
G36*
X121875200Y-132025000D02*
G01*
X121875200Y-133475000D01*
X120615200Y-133475000D01*
X120615200Y-132025000D01*
X121875200Y-132025000D01*
G37*
X121875200Y-132025000D02*
X121875200Y-133475000D01*
X120615200Y-133475000D01*
X120615200Y-132025000D01*
X121875200Y-132025000D01*
G36*
X123675200Y-132025000D02*
G01*
X123675200Y-133475000D01*
X122415200Y-133475000D01*
X122415200Y-132025000D01*
X123675200Y-132025000D01*
G37*
X123675200Y-132025000D02*
X123675200Y-133475000D01*
X122415200Y-133475000D01*
X122415200Y-132025000D01*
X123675200Y-132025000D01*
G36*
X125475200Y-132025000D02*
G01*
X125475200Y-133475000D01*
X124215200Y-133475000D01*
X124215200Y-132025000D01*
X125475200Y-132025000D01*
G37*
X125475200Y-132025000D02*
X125475200Y-133475000D01*
X124215200Y-133475000D01*
X124215200Y-132025000D01*
X125475200Y-132025000D01*
G36*
X120075200Y-132025000D02*
G01*
X120075200Y-133475000D01*
X118815200Y-133475000D01*
X118815200Y-132025000D01*
X120075200Y-132025000D01*
G37*
X120075200Y-132025000D02*
X120075200Y-133475000D01*
X118815200Y-133475000D01*
X118815200Y-132025000D01*
X120075200Y-132025000D01*
G36*
X118275200Y-132025000D02*
G01*
X118275200Y-133475000D01*
X117015200Y-133475000D01*
X117015200Y-132025000D01*
X118275200Y-132025000D01*
G37*
X118275200Y-132025000D02*
X118275200Y-133475000D01*
X117015200Y-133475000D01*
X117015200Y-132025000D01*
X118275200Y-132025000D01*
G36*
X116475200Y-132025000D02*
G01*
X116475200Y-133475000D01*
X115215200Y-133475000D01*
X115215200Y-132025000D01*
X116475200Y-132025000D01*
G37*
X116475200Y-132025000D02*
X116475200Y-133475000D01*
X115215200Y-133475000D01*
X115215200Y-132025000D01*
X116475200Y-132025000D01*
%TD*%
%TO.C,R25*%
G36*
G01*
X115373999Y-116986000D02*
X116274001Y-116986000D01*
G75*
G02*
X116524000Y-117235999I0J-249999D01*
G01*
X116524000Y-117936001D01*
G75*
G02*
X116274001Y-118186000I-249999J0D01*
G01*
X115373999Y-118186000D01*
G75*
G02*
X115124000Y-117936001I0J249999D01*
G01*
X115124000Y-117235999D01*
G75*
G02*
X115373999Y-116986000I249999J0D01*
G01*
G37*
G36*
G01*
X115373999Y-114986000D02*
X116274001Y-114986000D01*
G75*
G02*
X116524000Y-115235999I0J-249999D01*
G01*
X116524000Y-115936001D01*
G75*
G02*
X116274001Y-116186000I-249999J0D01*
G01*
X115373999Y-116186000D01*
G75*
G02*
X115124000Y-115936001I0J249999D01*
G01*
X115124000Y-115235999D01*
G75*
G02*
X115373999Y-114986000I249999J0D01*
G01*
G37*
%TD*%
%TO.C,D6*%
G36*
G01*
X117913999Y-117036000D02*
X118814001Y-117036000D01*
G75*
G02*
X119064000Y-117285999I0J-249999D01*
G01*
X119064000Y-117936001D01*
G75*
G02*
X118814001Y-118186000I-249999J0D01*
G01*
X117913999Y-118186000D01*
G75*
G02*
X117664000Y-117936001I0J249999D01*
G01*
X117664000Y-117285999D01*
G75*
G02*
X117913999Y-117036000I249999J0D01*
G01*
G37*
G36*
G01*
X117913999Y-114986000D02*
X118814001Y-114986000D01*
G75*
G02*
X119064000Y-115235999I0J-249999D01*
G01*
X119064000Y-115886001D01*
G75*
G02*
X118814001Y-116136000I-249999J0D01*
G01*
X117913999Y-116136000D01*
G75*
G02*
X117664000Y-115886001I0J249999D01*
G01*
X117664000Y-115235999D01*
G75*
G02*
X117913999Y-114986000I249999J0D01*
G01*
G37*
%TD*%
%TO.C,C34*%
G36*
G01*
X156736200Y-101186000D02*
X156736200Y-100236000D01*
G75*
G02*
X156986200Y-99986000I250000J0D01*
G01*
X157661200Y-99986000D01*
G75*
G02*
X157911200Y-100236000I0J-250000D01*
G01*
X157911200Y-101186000D01*
G75*
G02*
X157661200Y-101436000I-250000J0D01*
G01*
X156986200Y-101436000D01*
G75*
G02*
X156736200Y-101186000I0J250000D01*
G01*
G37*
G36*
G01*
X154661200Y-101186000D02*
X154661200Y-100236000D01*
G75*
G02*
X154911200Y-99986000I250000J0D01*
G01*
X155586200Y-99986000D01*
G75*
G02*
X155836200Y-100236000I0J-250000D01*
G01*
X155836200Y-101186000D01*
G75*
G02*
X155586200Y-101436000I-250000J0D01*
G01*
X154911200Y-101436000D01*
G75*
G02*
X154661200Y-101186000I0J250000D01*
G01*
G37*
%TD*%
%TO.C,C21*%
G36*
G01*
X133770700Y-118102400D02*
X133770700Y-117152400D01*
G75*
G02*
X134020700Y-116902400I250000J0D01*
G01*
X134695700Y-116902400D01*
G75*
G02*
X134945700Y-117152400I0J-250000D01*
G01*
X134945700Y-118102400D01*
G75*
G02*
X134695700Y-118352400I-250000J0D01*
G01*
X134020700Y-118352400D01*
G75*
G02*
X133770700Y-118102400I0J250000D01*
G01*
G37*
G36*
G01*
X131695700Y-118102400D02*
X131695700Y-117152400D01*
G75*
G02*
X131945700Y-116902400I250000J0D01*
G01*
X132620700Y-116902400D01*
G75*
G02*
X132870700Y-117152400I0J-250000D01*
G01*
X132870700Y-118102400D01*
G75*
G02*
X132620700Y-118352400I-250000J0D01*
G01*
X131945700Y-118352400D01*
G75*
G02*
X131695700Y-118102400I0J250000D01*
G01*
G37*
%TD*%
D11*
%TO.C,U9*%
X147878800Y-81233899D03*
X147878800Y-80733900D03*
X147878800Y-80233901D03*
X146532600Y-80233901D03*
X146532600Y-80733900D03*
X146532600Y-81233899D03*
%TD*%
%TO.C,C32*%
G36*
G01*
X133224600Y-89725520D02*
X133224600Y-88775520D01*
G75*
G02*
X133474600Y-88525520I250000J0D01*
G01*
X134149600Y-88525520D01*
G75*
G02*
X134399600Y-88775520I0J-250000D01*
G01*
X134399600Y-89725520D01*
G75*
G02*
X134149600Y-89975520I-250000J0D01*
G01*
X133474600Y-89975520D01*
G75*
G02*
X133224600Y-89725520I0J250000D01*
G01*
G37*
G36*
G01*
X131149600Y-89725520D02*
X131149600Y-88775520D01*
G75*
G02*
X131399600Y-88525520I250000J0D01*
G01*
X132074600Y-88525520D01*
G75*
G02*
X132324600Y-88775520I0J-250000D01*
G01*
X132324600Y-89725520D01*
G75*
G02*
X132074600Y-89975520I-250000J0D01*
G01*
X131399600Y-89975520D01*
G75*
G02*
X131149600Y-89725520I0J250000D01*
G01*
G37*
%TD*%
%TO.C,C31*%
G36*
G01*
X133226799Y-87370941D02*
X133226799Y-86420941D01*
G75*
G02*
X133476799Y-86170941I250000J0D01*
G01*
X134151799Y-86170941D01*
G75*
G02*
X134401799Y-86420941I0J-250000D01*
G01*
X134401799Y-87370941D01*
G75*
G02*
X134151799Y-87620941I-250000J0D01*
G01*
X133476799Y-87620941D01*
G75*
G02*
X133226799Y-87370941I0J250000D01*
G01*
G37*
G36*
G01*
X131151799Y-87370941D02*
X131151799Y-86420941D01*
G75*
G02*
X131401799Y-86170941I250000J0D01*
G01*
X132076799Y-86170941D01*
G75*
G02*
X132326799Y-86420941I0J-250000D01*
G01*
X132326799Y-87370941D01*
G75*
G02*
X132076799Y-87620941I-250000J0D01*
G01*
X131401799Y-87620941D01*
G75*
G02*
X131151799Y-87370941I0J250000D01*
G01*
G37*
%TD*%
%TO.C,D4*%
G36*
G01*
X127807300Y-71764739D02*
X127807300Y-72664741D01*
G75*
G02*
X127557301Y-72914740I-249999J0D01*
G01*
X126907299Y-72914740D01*
G75*
G02*
X126657300Y-72664741I0J249999D01*
G01*
X126657300Y-71764739D01*
G75*
G02*
X126907299Y-71514740I249999J0D01*
G01*
X127557301Y-71514740D01*
G75*
G02*
X127807300Y-71764739I0J-249999D01*
G01*
G37*
G36*
G01*
X129857300Y-71764739D02*
X129857300Y-72664741D01*
G75*
G02*
X129607301Y-72914740I-249999J0D01*
G01*
X128957299Y-72914740D01*
G75*
G02*
X128707300Y-72664741I0J249999D01*
G01*
X128707300Y-71764739D01*
G75*
G02*
X128957299Y-71514740I249999J0D01*
G01*
X129607301Y-71514740D01*
G75*
G02*
X129857300Y-71764739I0J-249999D01*
G01*
G37*
%TD*%
D12*
%TO.C,U8*%
X109084080Y-103952440D03*
X113684080Y-103952440D03*
X111384080Y-103952440D03*
D13*
X111384080Y-97652440D03*
%TD*%
D14*
%TO.C,U3*%
X150609300Y-90810080D03*
X150609300Y-89540080D03*
X150609300Y-88270080D03*
X150609300Y-87000080D03*
X155333700Y-87000080D03*
X155333700Y-88270080D03*
X155333700Y-89540080D03*
X155333700Y-90810080D03*
%TD*%
%TO.C,C20*%
G36*
G01*
X135592800Y-88541100D02*
X136542800Y-88541100D01*
G75*
G02*
X136792800Y-88791100I0J-250000D01*
G01*
X136792800Y-89466100D01*
G75*
G02*
X136542800Y-89716100I-250000J0D01*
G01*
X135592800Y-89716100D01*
G75*
G02*
X135342800Y-89466100I0J250000D01*
G01*
X135342800Y-88791100D01*
G75*
G02*
X135592800Y-88541100I250000J0D01*
G01*
G37*
G36*
G01*
X135592800Y-86466100D02*
X136542800Y-86466100D01*
G75*
G02*
X136792800Y-86716100I0J-250000D01*
G01*
X136792800Y-87391100D01*
G75*
G02*
X136542800Y-87641100I-250000J0D01*
G01*
X135592800Y-87641100D01*
G75*
G02*
X135342800Y-87391100I0J250000D01*
G01*
X135342800Y-86716100D01*
G75*
G02*
X135592800Y-86466100I250000J0D01*
G01*
G37*
%TD*%
D15*
%TO.C,U12*%
X105706780Y-79841060D03*
X105706780Y-84441060D03*
X105706780Y-82141060D03*
D16*
X112006780Y-82141060D03*
%TD*%
%TO.C,U7*%
G36*
G01*
X129553620Y-100317440D02*
X129553620Y-100017440D01*
G75*
G02*
X129703620Y-99867440I150000J0D01*
G01*
X131003620Y-99867440D01*
G75*
G02*
X131153620Y-100017440I0J-150000D01*
G01*
X131153620Y-100317440D01*
G75*
G02*
X131003620Y-100467440I-150000J0D01*
G01*
X129703620Y-100467440D01*
G75*
G02*
X129553620Y-100317440I0J150000D01*
G01*
G37*
G36*
G01*
X129553620Y-101587440D02*
X129553620Y-101287440D01*
G75*
G02*
X129703620Y-101137440I150000J0D01*
G01*
X131003620Y-101137440D01*
G75*
G02*
X131153620Y-101287440I0J-150000D01*
G01*
X131153620Y-101587440D01*
G75*
G02*
X131003620Y-101737440I-150000J0D01*
G01*
X129703620Y-101737440D01*
G75*
G02*
X129553620Y-101587440I0J150000D01*
G01*
G37*
G36*
G01*
X129553620Y-102857440D02*
X129553620Y-102557440D01*
G75*
G02*
X129703620Y-102407440I150000J0D01*
G01*
X131003620Y-102407440D01*
G75*
G02*
X131153620Y-102557440I0J-150000D01*
G01*
X131153620Y-102857440D01*
G75*
G02*
X131003620Y-103007440I-150000J0D01*
G01*
X129703620Y-103007440D01*
G75*
G02*
X129553620Y-102857440I0J150000D01*
G01*
G37*
G36*
G01*
X129553620Y-104127440D02*
X129553620Y-103827440D01*
G75*
G02*
X129703620Y-103677440I150000J0D01*
G01*
X131003620Y-103677440D01*
G75*
G02*
X131153620Y-103827440I0J-150000D01*
G01*
X131153620Y-104127440D01*
G75*
G02*
X131003620Y-104277440I-150000J0D01*
G01*
X129703620Y-104277440D01*
G75*
G02*
X129553620Y-104127440I0J150000D01*
G01*
G37*
G36*
G01*
X122353620Y-104127440D02*
X122353620Y-103827440D01*
G75*
G02*
X122503620Y-103677440I150000J0D01*
G01*
X123803620Y-103677440D01*
G75*
G02*
X123953620Y-103827440I0J-150000D01*
G01*
X123953620Y-104127440D01*
G75*
G02*
X123803620Y-104277440I-150000J0D01*
G01*
X122503620Y-104277440D01*
G75*
G02*
X122353620Y-104127440I0J150000D01*
G01*
G37*
G36*
G01*
X122353620Y-102857440D02*
X122353620Y-102557440D01*
G75*
G02*
X122503620Y-102407440I150000J0D01*
G01*
X123803620Y-102407440D01*
G75*
G02*
X123953620Y-102557440I0J-150000D01*
G01*
X123953620Y-102857440D01*
G75*
G02*
X123803620Y-103007440I-150000J0D01*
G01*
X122503620Y-103007440D01*
G75*
G02*
X122353620Y-102857440I0J150000D01*
G01*
G37*
G36*
G01*
X122353620Y-101587440D02*
X122353620Y-101287440D01*
G75*
G02*
X122503620Y-101137440I150000J0D01*
G01*
X123803620Y-101137440D01*
G75*
G02*
X123953620Y-101287440I0J-150000D01*
G01*
X123953620Y-101587440D01*
G75*
G02*
X123803620Y-101737440I-150000J0D01*
G01*
X122503620Y-101737440D01*
G75*
G02*
X122353620Y-101587440I0J150000D01*
G01*
G37*
G36*
G01*
X122353620Y-100317440D02*
X122353620Y-100017440D01*
G75*
G02*
X122503620Y-99867440I150000J0D01*
G01*
X123803620Y-99867440D01*
G75*
G02*
X123953620Y-100017440I0J-150000D01*
G01*
X123953620Y-100317440D01*
G75*
G02*
X123803620Y-100467440I-150000J0D01*
G01*
X122503620Y-100467440D01*
G75*
G02*
X122353620Y-100317440I0J150000D01*
G01*
G37*
%TD*%
%TO.C,R16*%
G36*
G01*
X132783159Y-101246380D02*
X133683161Y-101246380D01*
G75*
G02*
X133933160Y-101496379I0J-249999D01*
G01*
X133933160Y-102196381D01*
G75*
G02*
X133683161Y-102446380I-249999J0D01*
G01*
X132783159Y-102446380D01*
G75*
G02*
X132533160Y-102196381I0J249999D01*
G01*
X132533160Y-101496379D01*
G75*
G02*
X132783159Y-101246380I249999J0D01*
G01*
G37*
G36*
G01*
X132783159Y-99246380D02*
X133683161Y-99246380D01*
G75*
G02*
X133933160Y-99496379I0J-249999D01*
G01*
X133933160Y-100196381D01*
G75*
G02*
X133683161Y-100446380I-249999J0D01*
G01*
X132783159Y-100446380D01*
G75*
G02*
X132533160Y-100196381I0J249999D01*
G01*
X132533160Y-99496379D01*
G75*
G02*
X132783159Y-99246380I249999J0D01*
G01*
G37*
%TD*%
%TO.C,R15*%
G36*
G01*
X125047200Y-75644161D02*
X125047200Y-74744159D01*
G75*
G02*
X125297199Y-74494160I249999J0D01*
G01*
X125997201Y-74494160D01*
G75*
G02*
X126247200Y-74744159I0J-249999D01*
G01*
X126247200Y-75644161D01*
G75*
G02*
X125997201Y-75894160I-249999J0D01*
G01*
X125297199Y-75894160D01*
G75*
G02*
X125047200Y-75644161I0J249999D01*
G01*
G37*
G36*
G01*
X123047200Y-75644161D02*
X123047200Y-74744159D01*
G75*
G02*
X123297199Y-74494160I249999J0D01*
G01*
X123997201Y-74494160D01*
G75*
G02*
X124247200Y-74744159I0J-249999D01*
G01*
X124247200Y-75644161D01*
G75*
G02*
X123997201Y-75894160I-249999J0D01*
G01*
X123297199Y-75894160D01*
G75*
G02*
X123047200Y-75644161I0J249999D01*
G01*
G37*
%TD*%
%TO.C,R14*%
G36*
G01*
X119380460Y-103165061D02*
X119380460Y-102265059D01*
G75*
G02*
X119630459Y-102015060I249999J0D01*
G01*
X120330461Y-102015060D01*
G75*
G02*
X120580460Y-102265059I0J-249999D01*
G01*
X120580460Y-103165061D01*
G75*
G02*
X120330461Y-103415060I-249999J0D01*
G01*
X119630459Y-103415060D01*
G75*
G02*
X119380460Y-103165061I0J249999D01*
G01*
G37*
G36*
G01*
X117380460Y-103165061D02*
X117380460Y-102265059D01*
G75*
G02*
X117630459Y-102015060I249999J0D01*
G01*
X118330461Y-102015060D01*
G75*
G02*
X118580460Y-102265059I0J-249999D01*
G01*
X118580460Y-103165061D01*
G75*
G02*
X118330461Y-103415060I-249999J0D01*
G01*
X117630459Y-103415060D01*
G75*
G02*
X117380460Y-103165061I0J249999D01*
G01*
G37*
%TD*%
%TO.C,R13*%
G36*
G01*
X134229400Y-96857399D02*
X134229400Y-97757401D01*
G75*
G02*
X133979401Y-98007400I-249999J0D01*
G01*
X133279399Y-98007400D01*
G75*
G02*
X133029400Y-97757401I0J249999D01*
G01*
X133029400Y-96857399D01*
G75*
G02*
X133279399Y-96607400I249999J0D01*
G01*
X133979401Y-96607400D01*
G75*
G02*
X134229400Y-96857399I0J-249999D01*
G01*
G37*
G36*
G01*
X136229400Y-96857399D02*
X136229400Y-97757401D01*
G75*
G02*
X135979401Y-98007400I-249999J0D01*
G01*
X135279399Y-98007400D01*
G75*
G02*
X135029400Y-97757401I0J249999D01*
G01*
X135029400Y-96857399D01*
G75*
G02*
X135279399Y-96607400I249999J0D01*
G01*
X135979401Y-96607400D01*
G75*
G02*
X136229400Y-96857399I0J-249999D01*
G01*
G37*
%TD*%
%TO.C,R12*%
G36*
G01*
X117748100Y-91401479D02*
X117748100Y-92301481D01*
G75*
G02*
X117498101Y-92551480I-249999J0D01*
G01*
X116798099Y-92551480D01*
G75*
G02*
X116548100Y-92301481I0J249999D01*
G01*
X116548100Y-91401479D01*
G75*
G02*
X116798099Y-91151480I249999J0D01*
G01*
X117498101Y-91151480D01*
G75*
G02*
X117748100Y-91401479I0J-249999D01*
G01*
G37*
G36*
G01*
X119748100Y-91401479D02*
X119748100Y-92301481D01*
G75*
G02*
X119498101Y-92551480I-249999J0D01*
G01*
X118798099Y-92551480D01*
G75*
G02*
X118548100Y-92301481I0J249999D01*
G01*
X118548100Y-91401479D01*
G75*
G02*
X118798099Y-91151480I249999J0D01*
G01*
X119498101Y-91151480D01*
G75*
G02*
X119748100Y-91401479I0J-249999D01*
G01*
G37*
%TD*%
%TO.C,R11*%
G36*
G01*
X118536260Y-99722519D02*
X118536260Y-100622521D01*
G75*
G02*
X118286261Y-100872520I-249999J0D01*
G01*
X117586259Y-100872520D01*
G75*
G02*
X117336260Y-100622521I0J249999D01*
G01*
X117336260Y-99722519D01*
G75*
G02*
X117586259Y-99472520I249999J0D01*
G01*
X118286261Y-99472520D01*
G75*
G02*
X118536260Y-99722519I0J-249999D01*
G01*
G37*
G36*
G01*
X120536260Y-99722519D02*
X120536260Y-100622521D01*
G75*
G02*
X120286261Y-100872520I-249999J0D01*
G01*
X119586259Y-100872520D01*
G75*
G02*
X119336260Y-100622521I0J249999D01*
G01*
X119336260Y-99722519D01*
G75*
G02*
X119586259Y-99472520I249999J0D01*
G01*
X120286261Y-99472520D01*
G75*
G02*
X120536260Y-99722519I0J-249999D01*
G01*
G37*
%TD*%
%TO.C,R10*%
G36*
G01*
X119331180Y-98438121D02*
X119331180Y-97538119D01*
G75*
G02*
X119581179Y-97288120I249999J0D01*
G01*
X120281181Y-97288120D01*
G75*
G02*
X120531180Y-97538119I0J-249999D01*
G01*
X120531180Y-98438121D01*
G75*
G02*
X120281181Y-98688120I-249999J0D01*
G01*
X119581179Y-98688120D01*
G75*
G02*
X119331180Y-98438121I0J249999D01*
G01*
G37*
G36*
G01*
X117331180Y-98438121D02*
X117331180Y-97538119D01*
G75*
G02*
X117581179Y-97288120I249999J0D01*
G01*
X118281181Y-97288120D01*
G75*
G02*
X118531180Y-97538119I0J-249999D01*
G01*
X118531180Y-98438121D01*
G75*
G02*
X118281181Y-98688120I-249999J0D01*
G01*
X117581179Y-98688120D01*
G75*
G02*
X117331180Y-98438121I0J249999D01*
G01*
G37*
%TD*%
%TO.C,R9*%
G36*
G01*
X119986600Y-74744159D02*
X119986600Y-75644161D01*
G75*
G02*
X119736601Y-75894160I-249999J0D01*
G01*
X119036599Y-75894160D01*
G75*
G02*
X118786600Y-75644161I0J249999D01*
G01*
X118786600Y-74744159D01*
G75*
G02*
X119036599Y-74494160I249999J0D01*
G01*
X119736601Y-74494160D01*
G75*
G02*
X119986600Y-74744159I0J-249999D01*
G01*
G37*
G36*
G01*
X121986600Y-74744159D02*
X121986600Y-75644161D01*
G75*
G02*
X121736601Y-75894160I-249999J0D01*
G01*
X121036599Y-75894160D01*
G75*
G02*
X120786600Y-75644161I0J249999D01*
G01*
X120786600Y-74744159D01*
G75*
G02*
X121036599Y-74494160I249999J0D01*
G01*
X121736601Y-74494160D01*
G75*
G02*
X121986600Y-74744159I0J-249999D01*
G01*
G37*
%TD*%
%TO.C,R8*%
G36*
G01*
X198098460Y-80931599D02*
X198098460Y-81831601D01*
G75*
G02*
X197848461Y-82081600I-249999J0D01*
G01*
X197148459Y-82081600D01*
G75*
G02*
X196898460Y-81831601I0J249999D01*
G01*
X196898460Y-80931599D01*
G75*
G02*
X197148459Y-80681600I249999J0D01*
G01*
X197848461Y-80681600D01*
G75*
G02*
X198098460Y-80931599I0J-249999D01*
G01*
G37*
G36*
G01*
X200098460Y-80931599D02*
X200098460Y-81831601D01*
G75*
G02*
X199848461Y-82081600I-249999J0D01*
G01*
X199148459Y-82081600D01*
G75*
G02*
X198898460Y-81831601I0J249999D01*
G01*
X198898460Y-80931599D01*
G75*
G02*
X199148459Y-80681600I249999J0D01*
G01*
X199848461Y-80681600D01*
G75*
G02*
X200098460Y-80931599I0J-249999D01*
G01*
G37*
%TD*%
%TO.C,R7*%
G36*
G01*
X190726620Y-80662359D02*
X190726620Y-81562361D01*
G75*
G02*
X190476621Y-81812360I-249999J0D01*
G01*
X189776619Y-81812360D01*
G75*
G02*
X189526620Y-81562361I0J249999D01*
G01*
X189526620Y-80662359D01*
G75*
G02*
X189776619Y-80412360I249999J0D01*
G01*
X190476621Y-80412360D01*
G75*
G02*
X190726620Y-80662359I0J-249999D01*
G01*
G37*
G36*
G01*
X192726620Y-80662359D02*
X192726620Y-81562361D01*
G75*
G02*
X192476621Y-81812360I-249999J0D01*
G01*
X191776619Y-81812360D01*
G75*
G02*
X191526620Y-81562361I0J249999D01*
G01*
X191526620Y-80662359D01*
G75*
G02*
X191776619Y-80412360I249999J0D01*
G01*
X192476621Y-80412360D01*
G75*
G02*
X192726620Y-80662359I0J-249999D01*
G01*
G37*
%TD*%
%TO.C,R6*%
G36*
G01*
X183374080Y-80715699D02*
X183374080Y-81615701D01*
G75*
G02*
X183124081Y-81865700I-249999J0D01*
G01*
X182424079Y-81865700D01*
G75*
G02*
X182174080Y-81615701I0J249999D01*
G01*
X182174080Y-80715699D01*
G75*
G02*
X182424079Y-80465700I249999J0D01*
G01*
X183124081Y-80465700D01*
G75*
G02*
X183374080Y-80715699I0J-249999D01*
G01*
G37*
G36*
G01*
X185374080Y-80715699D02*
X185374080Y-81615701D01*
G75*
G02*
X185124081Y-81865700I-249999J0D01*
G01*
X184424079Y-81865700D01*
G75*
G02*
X184174080Y-81615701I0J249999D01*
G01*
X184174080Y-80715699D01*
G75*
G02*
X184424079Y-80465700I249999J0D01*
G01*
X185124081Y-80465700D01*
G75*
G02*
X185374080Y-80715699I0J-249999D01*
G01*
G37*
%TD*%
%TO.C,C33*%
G36*
G01*
X116908600Y-77701900D02*
X115958600Y-77701900D01*
G75*
G02*
X115708600Y-77451900I0J250000D01*
G01*
X115708600Y-76776900D01*
G75*
G02*
X115958600Y-76526900I250000J0D01*
G01*
X116908600Y-76526900D01*
G75*
G02*
X117158600Y-76776900I0J-250000D01*
G01*
X117158600Y-77451900D01*
G75*
G02*
X116908600Y-77701900I-250000J0D01*
G01*
G37*
G36*
G01*
X116908600Y-79776900D02*
X115958600Y-79776900D01*
G75*
G02*
X115708600Y-79526900I0J250000D01*
G01*
X115708600Y-78851900D01*
G75*
G02*
X115958600Y-78601900I250000J0D01*
G01*
X116908600Y-78601900D01*
G75*
G02*
X117158600Y-78851900I0J-250000D01*
G01*
X117158600Y-79526900D01*
G75*
G02*
X116908600Y-79776900I-250000J0D01*
G01*
G37*
%TD*%
%TO.C,C28*%
G36*
G01*
X119956600Y-77680400D02*
X119006600Y-77680400D01*
G75*
G02*
X118756600Y-77430400I0J250000D01*
G01*
X118756600Y-76755400D01*
G75*
G02*
X119006600Y-76505400I250000J0D01*
G01*
X119956600Y-76505400D01*
G75*
G02*
X120206600Y-76755400I0J-250000D01*
G01*
X120206600Y-77430400D01*
G75*
G02*
X119956600Y-77680400I-250000J0D01*
G01*
G37*
G36*
G01*
X119956600Y-79755400D02*
X119006600Y-79755400D01*
G75*
G02*
X118756600Y-79505400I0J250000D01*
G01*
X118756600Y-78830400D01*
G75*
G02*
X119006600Y-78580400I250000J0D01*
G01*
X119956600Y-78580400D01*
G75*
G02*
X120206600Y-78830400I0J-250000D01*
G01*
X120206600Y-79505400D01*
G75*
G02*
X119956600Y-79755400I-250000J0D01*
G01*
G37*
%TD*%
%TO.C,C27*%
G36*
G01*
X125117100Y-79352160D02*
X125117100Y-78402160D01*
G75*
G02*
X125367100Y-78152160I250000J0D01*
G01*
X126042100Y-78152160D01*
G75*
G02*
X126292100Y-78402160I0J-250000D01*
G01*
X126292100Y-79352160D01*
G75*
G02*
X126042100Y-79602160I-250000J0D01*
G01*
X125367100Y-79602160D01*
G75*
G02*
X125117100Y-79352160I0J250000D01*
G01*
G37*
G36*
G01*
X123042100Y-79352160D02*
X123042100Y-78402160D01*
G75*
G02*
X123292100Y-78152160I250000J0D01*
G01*
X123967100Y-78152160D01*
G75*
G02*
X124217100Y-78402160I0J-250000D01*
G01*
X124217100Y-79352160D01*
G75*
G02*
X123967100Y-79602160I-250000J0D01*
G01*
X123292100Y-79602160D01*
G75*
G02*
X123042100Y-79352160I0J250000D01*
G01*
G37*
%TD*%
%TO.C,C26*%
G36*
G01*
X116365000Y-89248400D02*
X117315000Y-89248400D01*
G75*
G02*
X117565000Y-89498400I0J-250000D01*
G01*
X117565000Y-90173400D01*
G75*
G02*
X117315000Y-90423400I-250000J0D01*
G01*
X116365000Y-90423400D01*
G75*
G02*
X116115000Y-90173400I0J250000D01*
G01*
X116115000Y-89498400D01*
G75*
G02*
X116365000Y-89248400I250000J0D01*
G01*
G37*
G36*
G01*
X116365000Y-87173400D02*
X117315000Y-87173400D01*
G75*
G02*
X117565000Y-87423400I0J-250000D01*
G01*
X117565000Y-88098400D01*
G75*
G02*
X117315000Y-88348400I-250000J0D01*
G01*
X116365000Y-88348400D01*
G75*
G02*
X116115000Y-88098400I0J250000D01*
G01*
X116115000Y-87423400D01*
G75*
G02*
X116365000Y-87173400I250000J0D01*
G01*
G37*
%TD*%
%TO.C,C25*%
G36*
G01*
X130570300Y-80662800D02*
X130570300Y-79712800D01*
G75*
G02*
X130820300Y-79462800I250000J0D01*
G01*
X131495300Y-79462800D01*
G75*
G02*
X131745300Y-79712800I0J-250000D01*
G01*
X131745300Y-80662800D01*
G75*
G02*
X131495300Y-80912800I-250000J0D01*
G01*
X130820300Y-80912800D01*
G75*
G02*
X130570300Y-80662800I0J250000D01*
G01*
G37*
G36*
G01*
X128495300Y-80662800D02*
X128495300Y-79712800D01*
G75*
G02*
X128745300Y-79462800I250000J0D01*
G01*
X129420300Y-79462800D01*
G75*
G02*
X129670300Y-79712800I0J-250000D01*
G01*
X129670300Y-80662800D01*
G75*
G02*
X129420300Y-80912800I-250000J0D01*
G01*
X128745300Y-80912800D01*
G75*
G02*
X128495300Y-80662800I0J250000D01*
G01*
G37*
%TD*%
%TO.C,C24*%
G36*
G01*
X110269440Y-77490340D02*
X110269440Y-76540340D01*
G75*
G02*
X110519440Y-76290340I250000J0D01*
G01*
X111194440Y-76290340D01*
G75*
G02*
X111444440Y-76540340I0J-250000D01*
G01*
X111444440Y-77490340D01*
G75*
G02*
X111194440Y-77740340I-250000J0D01*
G01*
X110519440Y-77740340D01*
G75*
G02*
X110269440Y-77490340I0J250000D01*
G01*
G37*
G36*
G01*
X108194440Y-77490340D02*
X108194440Y-76540340D01*
G75*
G02*
X108444440Y-76290340I250000J0D01*
G01*
X109119440Y-76290340D01*
G75*
G02*
X109369440Y-76540340I0J-250000D01*
G01*
X109369440Y-77490340D01*
G75*
G02*
X109119440Y-77740340I-250000J0D01*
G01*
X108444440Y-77740340D01*
G75*
G02*
X108194440Y-77490340I0J250000D01*
G01*
G37*
%TD*%
%TO.C,C23*%
G36*
G01*
X105564180Y-88968600D02*
X105564180Y-88018600D01*
G75*
G02*
X105814180Y-87768600I250000J0D01*
G01*
X106489180Y-87768600D01*
G75*
G02*
X106739180Y-88018600I0J-250000D01*
G01*
X106739180Y-88968600D01*
G75*
G02*
X106489180Y-89218600I-250000J0D01*
G01*
X105814180Y-89218600D01*
G75*
G02*
X105564180Y-88968600I0J250000D01*
G01*
G37*
G36*
G01*
X103489180Y-88968600D02*
X103489180Y-88018600D01*
G75*
G02*
X103739180Y-87768600I250000J0D01*
G01*
X104414180Y-87768600D01*
G75*
G02*
X104664180Y-88018600I0J-250000D01*
G01*
X104664180Y-88968600D01*
G75*
G02*
X104414180Y-89218600I-250000J0D01*
G01*
X103739180Y-89218600D01*
G75*
G02*
X103489180Y-88968600I0J250000D01*
G01*
G37*
%TD*%
%TO.C,C22*%
G36*
G01*
X130781300Y-97122000D02*
X130781300Y-96172000D01*
G75*
G02*
X131031300Y-95922000I250000J0D01*
G01*
X131706300Y-95922000D01*
G75*
G02*
X131956300Y-96172000I0J-250000D01*
G01*
X131956300Y-97122000D01*
G75*
G02*
X131706300Y-97372000I-250000J0D01*
G01*
X131031300Y-97372000D01*
G75*
G02*
X130781300Y-97122000I0J250000D01*
G01*
G37*
G36*
G01*
X128706300Y-97122000D02*
X128706300Y-96172000D01*
G75*
G02*
X128956300Y-95922000I250000J0D01*
G01*
X129631300Y-95922000D01*
G75*
G02*
X129881300Y-96172000I0J-250000D01*
G01*
X129881300Y-97122000D01*
G75*
G02*
X129631300Y-97372000I-250000J0D01*
G01*
X128956300Y-97372000D01*
G75*
G02*
X128706300Y-97122000I0J250000D01*
G01*
G37*
%TD*%
%TO.C,U11*%
G36*
G01*
X172131140Y-110781960D02*
X172131140Y-110681960D01*
G75*
G02*
X172181140Y-110631960I50000J0D01*
G01*
X178081140Y-110631960D01*
G75*
G02*
X178131140Y-110681960I0J-50000D01*
G01*
X178131140Y-110781960D01*
G75*
G02*
X178081140Y-110831960I-50000J0D01*
G01*
X172181140Y-110831960D01*
G75*
G02*
X172131140Y-110781960I0J50000D01*
G01*
G37*
G36*
G01*
X172131140Y-111281960D02*
X172131140Y-111181960D01*
G75*
G02*
X172181140Y-111131960I50000J0D01*
G01*
X178081140Y-111131960D01*
G75*
G02*
X178131140Y-111181960I0J-50000D01*
G01*
X178131140Y-111281960D01*
G75*
G02*
X178081140Y-111331960I-50000J0D01*
G01*
X172181140Y-111331960D01*
G75*
G02*
X172131140Y-111281960I0J50000D01*
G01*
G37*
G36*
G01*
X172131140Y-111781960D02*
X172131140Y-111681960D01*
G75*
G02*
X172181140Y-111631960I50000J0D01*
G01*
X178081140Y-111631960D01*
G75*
G02*
X178131140Y-111681960I0J-50000D01*
G01*
X178131140Y-111781960D01*
G75*
G02*
X178081140Y-111831960I-50000J0D01*
G01*
X172181140Y-111831960D01*
G75*
G02*
X172131140Y-111781960I0J50000D01*
G01*
G37*
G36*
G01*
X172131140Y-112281960D02*
X172131140Y-112181960D01*
G75*
G02*
X172181140Y-112131960I50000J0D01*
G01*
X178081140Y-112131960D01*
G75*
G02*
X178131140Y-112181960I0J-50000D01*
G01*
X178131140Y-112281960D01*
G75*
G02*
X178081140Y-112331960I-50000J0D01*
G01*
X172181140Y-112331960D01*
G75*
G02*
X172131140Y-112281960I0J50000D01*
G01*
G37*
G36*
G01*
X172131140Y-112781960D02*
X172131140Y-112681960D01*
G75*
G02*
X172181140Y-112631960I50000J0D01*
G01*
X178081140Y-112631960D01*
G75*
G02*
X178131140Y-112681960I0J-50000D01*
G01*
X178131140Y-112781960D01*
G75*
G02*
X178081140Y-112831960I-50000J0D01*
G01*
X172181140Y-112831960D01*
G75*
G02*
X172131140Y-112781960I0J50000D01*
G01*
G37*
G36*
G01*
X172131140Y-113281960D02*
X172131140Y-113181960D01*
G75*
G02*
X172181140Y-113131960I50000J0D01*
G01*
X178081140Y-113131960D01*
G75*
G02*
X178131140Y-113181960I0J-50000D01*
G01*
X178131140Y-113281960D01*
G75*
G02*
X178081140Y-113331960I-50000J0D01*
G01*
X172181140Y-113331960D01*
G75*
G02*
X172131140Y-113281960I0J50000D01*
G01*
G37*
G36*
G01*
X172131140Y-113781960D02*
X172131140Y-113681960D01*
G75*
G02*
X172181140Y-113631960I50000J0D01*
G01*
X178081140Y-113631960D01*
G75*
G02*
X178131140Y-113681960I0J-50000D01*
G01*
X178131140Y-113781960D01*
G75*
G02*
X178081140Y-113831960I-50000J0D01*
G01*
X172181140Y-113831960D01*
G75*
G02*
X172131140Y-113781960I0J50000D01*
G01*
G37*
G36*
G01*
X172131140Y-114281960D02*
X172131140Y-114181960D01*
G75*
G02*
X172181140Y-114131960I50000J0D01*
G01*
X178081140Y-114131960D01*
G75*
G02*
X178131140Y-114181960I0J-50000D01*
G01*
X178131140Y-114281960D01*
G75*
G02*
X178081140Y-114331960I-50000J0D01*
G01*
X172181140Y-114331960D01*
G75*
G02*
X172131140Y-114281960I0J50000D01*
G01*
G37*
G36*
G01*
X172131140Y-114781960D02*
X172131140Y-114681960D01*
G75*
G02*
X172181140Y-114631960I50000J0D01*
G01*
X178081140Y-114631960D01*
G75*
G02*
X178131140Y-114681960I0J-50000D01*
G01*
X178131140Y-114781960D01*
G75*
G02*
X178081140Y-114831960I-50000J0D01*
G01*
X172181140Y-114831960D01*
G75*
G02*
X172131140Y-114781960I0J50000D01*
G01*
G37*
G36*
G01*
X172131140Y-115281960D02*
X172131140Y-115181960D01*
G75*
G02*
X172181140Y-115131960I50000J0D01*
G01*
X178081140Y-115131960D01*
G75*
G02*
X178131140Y-115181960I0J-50000D01*
G01*
X178131140Y-115281960D01*
G75*
G02*
X178081140Y-115331960I-50000J0D01*
G01*
X172181140Y-115331960D01*
G75*
G02*
X172131140Y-115281960I0J50000D01*
G01*
G37*
G36*
G01*
X172131140Y-115781960D02*
X172131140Y-115681960D01*
G75*
G02*
X172181140Y-115631960I50000J0D01*
G01*
X178081140Y-115631960D01*
G75*
G02*
X178131140Y-115681960I0J-50000D01*
G01*
X178131140Y-115781960D01*
G75*
G02*
X178081140Y-115831960I-50000J0D01*
G01*
X172181140Y-115831960D01*
G75*
G02*
X172131140Y-115781960I0J50000D01*
G01*
G37*
G36*
G01*
X172131140Y-116281960D02*
X172131140Y-116181960D01*
G75*
G02*
X172181140Y-116131960I50000J0D01*
G01*
X178081140Y-116131960D01*
G75*
G02*
X178131140Y-116181960I0J-50000D01*
G01*
X178131140Y-116281960D01*
G75*
G02*
X178081140Y-116331960I-50000J0D01*
G01*
X172181140Y-116331960D01*
G75*
G02*
X172131140Y-116281960I0J50000D01*
G01*
G37*
G36*
G01*
X172131140Y-116781960D02*
X172131140Y-116681960D01*
G75*
G02*
X172181140Y-116631960I50000J0D01*
G01*
X178081140Y-116631960D01*
G75*
G02*
X178131140Y-116681960I0J-50000D01*
G01*
X178131140Y-116781960D01*
G75*
G02*
X178081140Y-116831960I-50000J0D01*
G01*
X172181140Y-116831960D01*
G75*
G02*
X172131140Y-116781960I0J50000D01*
G01*
G37*
G36*
G01*
X172131140Y-117281960D02*
X172131140Y-117181960D01*
G75*
G02*
X172181140Y-117131960I50000J0D01*
G01*
X178081140Y-117131960D01*
G75*
G02*
X178131140Y-117181960I0J-50000D01*
G01*
X178131140Y-117281960D01*
G75*
G02*
X178081140Y-117331960I-50000J0D01*
G01*
X172181140Y-117331960D01*
G75*
G02*
X172131140Y-117281960I0J50000D01*
G01*
G37*
G36*
G01*
X172131140Y-117781960D02*
X172131140Y-117681960D01*
G75*
G02*
X172181140Y-117631960I50000J0D01*
G01*
X178081140Y-117631960D01*
G75*
G02*
X178131140Y-117681960I0J-50000D01*
G01*
X178131140Y-117781960D01*
G75*
G02*
X178081140Y-117831960I-50000J0D01*
G01*
X172181140Y-117831960D01*
G75*
G02*
X172131140Y-117781960I0J50000D01*
G01*
G37*
G36*
G01*
X172131140Y-118281960D02*
X172131140Y-118181960D01*
G75*
G02*
X172181140Y-118131960I50000J0D01*
G01*
X178081140Y-118131960D01*
G75*
G02*
X178131140Y-118181960I0J-50000D01*
G01*
X178131140Y-118281960D01*
G75*
G02*
X178081140Y-118331960I-50000J0D01*
G01*
X172181140Y-118331960D01*
G75*
G02*
X172131140Y-118281960I0J50000D01*
G01*
G37*
G36*
G01*
X172131140Y-118781960D02*
X172131140Y-118681960D01*
G75*
G02*
X172181140Y-118631960I50000J0D01*
G01*
X178081140Y-118631960D01*
G75*
G02*
X178131140Y-118681960I0J-50000D01*
G01*
X178131140Y-118781960D01*
G75*
G02*
X178081140Y-118831960I-50000J0D01*
G01*
X172181140Y-118831960D01*
G75*
G02*
X172131140Y-118781960I0J50000D01*
G01*
G37*
G36*
G01*
X172131140Y-119281960D02*
X172131140Y-119181960D01*
G75*
G02*
X172181140Y-119131960I50000J0D01*
G01*
X178081140Y-119131960D01*
G75*
G02*
X178131140Y-119181960I0J-50000D01*
G01*
X178131140Y-119281960D01*
G75*
G02*
X178081140Y-119331960I-50000J0D01*
G01*
X172181140Y-119331960D01*
G75*
G02*
X172131140Y-119281960I0J50000D01*
G01*
G37*
G36*
G01*
X172131140Y-119781960D02*
X172131140Y-119681960D01*
G75*
G02*
X172181140Y-119631960I50000J0D01*
G01*
X178081140Y-119631960D01*
G75*
G02*
X178131140Y-119681960I0J-50000D01*
G01*
X178131140Y-119781960D01*
G75*
G02*
X178081140Y-119831960I-50000J0D01*
G01*
X172181140Y-119831960D01*
G75*
G02*
X172131140Y-119781960I0J50000D01*
G01*
G37*
G36*
G01*
X172131140Y-120281960D02*
X172131140Y-120181960D01*
G75*
G02*
X172181140Y-120131960I50000J0D01*
G01*
X178081140Y-120131960D01*
G75*
G02*
X178131140Y-120181960I0J-50000D01*
G01*
X178131140Y-120281960D01*
G75*
G02*
X178081140Y-120331960I-50000J0D01*
G01*
X172181140Y-120331960D01*
G75*
G02*
X172131140Y-120281960I0J50000D01*
G01*
G37*
%TD*%
%TO.C,C39*%
G36*
G01*
X115211880Y-82633400D02*
X114261880Y-82633400D01*
G75*
G02*
X114011880Y-82383400I0J250000D01*
G01*
X114011880Y-81708400D01*
G75*
G02*
X114261880Y-81458400I250000J0D01*
G01*
X115211880Y-81458400D01*
G75*
G02*
X115461880Y-81708400I0J-250000D01*
G01*
X115461880Y-82383400D01*
G75*
G02*
X115211880Y-82633400I-250000J0D01*
G01*
G37*
G36*
G01*
X115211880Y-84708400D02*
X114261880Y-84708400D01*
G75*
G02*
X114011880Y-84458400I0J250000D01*
G01*
X114011880Y-83783400D01*
G75*
G02*
X114261880Y-83533400I250000J0D01*
G01*
X115211880Y-83533400D01*
G75*
G02*
X115461880Y-83783400I0J-250000D01*
G01*
X115461880Y-84458400D01*
G75*
G02*
X115211880Y-84708400I-250000J0D01*
G01*
G37*
%TD*%
D17*
%TO.C,Y1*%
X123501520Y-110969820D03*
X121801520Y-110969820D03*
X121801520Y-109669820D03*
X123501520Y-109669820D03*
%TD*%
%TO.C,C30*%
G36*
G01*
X123123020Y-113792020D02*
X123123020Y-112842020D01*
G75*
G02*
X123373020Y-112592020I250000J0D01*
G01*
X124048020Y-112592020D01*
G75*
G02*
X124298020Y-112842020I0J-250000D01*
G01*
X124298020Y-113792020D01*
G75*
G02*
X124048020Y-114042020I-250000J0D01*
G01*
X123373020Y-114042020D01*
G75*
G02*
X123123020Y-113792020I0J250000D01*
G01*
G37*
G36*
G01*
X121048020Y-113792020D02*
X121048020Y-112842020D01*
G75*
G02*
X121298020Y-112592020I250000J0D01*
G01*
X121973020Y-112592020D01*
G75*
G02*
X122223020Y-112842020I0J-250000D01*
G01*
X122223020Y-113792020D01*
G75*
G02*
X121973020Y-114042020I-250000J0D01*
G01*
X121298020Y-114042020D01*
G75*
G02*
X121048020Y-113792020I0J250000D01*
G01*
G37*
%TD*%
%TO.C,C29*%
G36*
G01*
X123186520Y-108064320D02*
X123186520Y-107114320D01*
G75*
G02*
X123436520Y-106864320I250000J0D01*
G01*
X124111520Y-106864320D01*
G75*
G02*
X124361520Y-107114320I0J-250000D01*
G01*
X124361520Y-108064320D01*
G75*
G02*
X124111520Y-108314320I-250000J0D01*
G01*
X123436520Y-108314320D01*
G75*
G02*
X123186520Y-108064320I0J250000D01*
G01*
G37*
G36*
G01*
X121111520Y-108064320D02*
X121111520Y-107114320D01*
G75*
G02*
X121361520Y-106864320I250000J0D01*
G01*
X122036520Y-106864320D01*
G75*
G02*
X122286520Y-107114320I0J-250000D01*
G01*
X122286520Y-108064320D01*
G75*
G02*
X122036520Y-108314320I-250000J0D01*
G01*
X121361520Y-108314320D01*
G75*
G02*
X121111520Y-108064320I0J250000D01*
G01*
G37*
%TD*%
D12*
%TO.C,U13*%
X143358900Y-131523340D03*
X138758900Y-131523340D03*
X141058900Y-131523340D03*
D13*
X141058900Y-137823340D03*
%TD*%
%TO.C,FB1*%
G36*
G01*
X152077400Y-104644700D02*
X153027400Y-104644700D01*
G75*
G02*
X153277400Y-104894700I0J-250000D01*
G01*
X153277400Y-105569700D01*
G75*
G02*
X153027400Y-105819700I-250000J0D01*
G01*
X152077400Y-105819700D01*
G75*
G02*
X151827400Y-105569700I0J250000D01*
G01*
X151827400Y-104894700D01*
G75*
G02*
X152077400Y-104644700I250000J0D01*
G01*
G37*
G36*
G01*
X152077400Y-102569700D02*
X153027400Y-102569700D01*
G75*
G02*
X153277400Y-102819700I0J-250000D01*
G01*
X153277400Y-103494700D01*
G75*
G02*
X153027400Y-103744700I-250000J0D01*
G01*
X152077400Y-103744700D01*
G75*
G02*
X151827400Y-103494700I0J250000D01*
G01*
X151827400Y-102819700D01*
G75*
G02*
X152077400Y-102569700I250000J0D01*
G01*
G37*
%TD*%
%TO.C,C15*%
G36*
G01*
X147058400Y-133203620D02*
X146108400Y-133203620D01*
G75*
G02*
X145858400Y-132953620I0J250000D01*
G01*
X145858400Y-132278620D01*
G75*
G02*
X146108400Y-132028620I250000J0D01*
G01*
X147058400Y-132028620D01*
G75*
G02*
X147308400Y-132278620I0J-250000D01*
G01*
X147308400Y-132953620D01*
G75*
G02*
X147058400Y-133203620I-250000J0D01*
G01*
G37*
G36*
G01*
X147058400Y-135278620D02*
X146108400Y-135278620D01*
G75*
G02*
X145858400Y-135028620I0J250000D01*
G01*
X145858400Y-134353620D01*
G75*
G02*
X146108400Y-134103620I250000J0D01*
G01*
X147058400Y-134103620D01*
G75*
G02*
X147308400Y-134353620I0J-250000D01*
G01*
X147308400Y-135028620D01*
G75*
G02*
X147058400Y-135278620I-250000J0D01*
G01*
G37*
%TD*%
%TO.C,C14*%
G36*
G01*
X132473598Y-133394427D02*
X131801847Y-134066178D01*
G75*
G02*
X131448293Y-134066178I-176777J176777D01*
G01*
X130970996Y-133588881D01*
G75*
G02*
X130970996Y-133235327I176777J176777D01*
G01*
X131642747Y-132563576D01*
G75*
G02*
X131996301Y-132563576I176777J-176777D01*
G01*
X132473598Y-133040873D01*
G75*
G02*
X132473598Y-133394427I-176777J-176777D01*
G01*
G37*
G36*
G01*
X133940844Y-134861673D02*
X133269093Y-135533424D01*
G75*
G02*
X132915539Y-135533424I-176777J176777D01*
G01*
X132438242Y-135056127D01*
G75*
G02*
X132438242Y-134702573I176777J176777D01*
G01*
X133109993Y-134030822D01*
G75*
G02*
X133463547Y-134030822I176777J-176777D01*
G01*
X133940844Y-134508119D01*
G75*
G02*
X133940844Y-134861673I-176777J-176777D01*
G01*
G37*
%TD*%
%TO.C,R23*%
G36*
G01*
X179596201Y-82630060D02*
X178696199Y-82630060D01*
G75*
G02*
X178446200Y-82380061I0J249999D01*
G01*
X178446200Y-81680059D01*
G75*
G02*
X178696199Y-81430060I249999J0D01*
G01*
X179596201Y-81430060D01*
G75*
G02*
X179846200Y-81680059I0J-249999D01*
G01*
X179846200Y-82380061D01*
G75*
G02*
X179596201Y-82630060I-249999J0D01*
G01*
G37*
G36*
G01*
X179596201Y-84630060D02*
X178696199Y-84630060D01*
G75*
G02*
X178446200Y-84380061I0J249999D01*
G01*
X178446200Y-83680059D01*
G75*
G02*
X178696199Y-83430060I249999J0D01*
G01*
X179596201Y-83430060D01*
G75*
G02*
X179846200Y-83680059I0J-249999D01*
G01*
X179846200Y-84380061D01*
G75*
G02*
X179596201Y-84630060I-249999J0D01*
G01*
G37*
%TD*%
%TO.C,R22*%
G36*
G01*
X176938519Y-90132360D02*
X177838521Y-90132360D01*
G75*
G02*
X178088520Y-90382359I0J-249999D01*
G01*
X178088520Y-91082361D01*
G75*
G02*
X177838521Y-91332360I-249999J0D01*
G01*
X176938519Y-91332360D01*
G75*
G02*
X176688520Y-91082361I0J249999D01*
G01*
X176688520Y-90382359D01*
G75*
G02*
X176938519Y-90132360I249999J0D01*
G01*
G37*
G36*
G01*
X176938519Y-88132360D02*
X177838521Y-88132360D01*
G75*
G02*
X178088520Y-88382359I0J-249999D01*
G01*
X178088520Y-89082361D01*
G75*
G02*
X177838521Y-89332360I-249999J0D01*
G01*
X176938519Y-89332360D01*
G75*
G02*
X176688520Y-89082361I0J249999D01*
G01*
X176688520Y-88382359D01*
G75*
G02*
X176938519Y-88132360I249999J0D01*
G01*
G37*
%TD*%
%TO.C,R20*%
G36*
G01*
X203566181Y-92073780D02*
X202666179Y-92073780D01*
G75*
G02*
X202416180Y-91823781I0J249999D01*
G01*
X202416180Y-91123779D01*
G75*
G02*
X202666179Y-90873780I249999J0D01*
G01*
X203566181Y-90873780D01*
G75*
G02*
X203816180Y-91123779I0J-249999D01*
G01*
X203816180Y-91823781D01*
G75*
G02*
X203566181Y-92073780I-249999J0D01*
G01*
G37*
G36*
G01*
X203566181Y-94073780D02*
X202666179Y-94073780D01*
G75*
G02*
X202416180Y-93823781I0J249999D01*
G01*
X202416180Y-93123779D01*
G75*
G02*
X202666179Y-92873780I249999J0D01*
G01*
X203566181Y-92873780D01*
G75*
G02*
X203816180Y-93123779I0J-249999D01*
G01*
X203816180Y-93823781D01*
G75*
G02*
X203566181Y-94073780I-249999J0D01*
G01*
G37*
%TD*%
%TO.C,C43*%
G36*
G01*
X106972120Y-99393680D02*
X106022120Y-99393680D01*
G75*
G02*
X105772120Y-99143680I0J250000D01*
G01*
X105772120Y-98468680D01*
G75*
G02*
X106022120Y-98218680I250000J0D01*
G01*
X106972120Y-98218680D01*
G75*
G02*
X107222120Y-98468680I0J-250000D01*
G01*
X107222120Y-99143680D01*
G75*
G02*
X106972120Y-99393680I-250000J0D01*
G01*
G37*
G36*
G01*
X106972120Y-101468680D02*
X106022120Y-101468680D01*
G75*
G02*
X105772120Y-101218680I0J250000D01*
G01*
X105772120Y-100543680D01*
G75*
G02*
X106022120Y-100293680I250000J0D01*
G01*
X106972120Y-100293680D01*
G75*
G02*
X107222120Y-100543680I0J-250000D01*
G01*
X107222120Y-101218680D01*
G75*
G02*
X106972120Y-101468680I-250000J0D01*
G01*
G37*
%TD*%
%TO.C,C42*%
G36*
G01*
X112202900Y-107911880D02*
X112202900Y-108861880D01*
G75*
G02*
X111952900Y-109111880I-250000J0D01*
G01*
X111277900Y-109111880D01*
G75*
G02*
X111027900Y-108861880I0J250000D01*
G01*
X111027900Y-107911880D01*
G75*
G02*
X111277900Y-107661880I250000J0D01*
G01*
X111952900Y-107661880D01*
G75*
G02*
X112202900Y-107911880I0J-250000D01*
G01*
G37*
G36*
G01*
X114277900Y-107911880D02*
X114277900Y-108861880D01*
G75*
G02*
X114027900Y-109111880I-250000J0D01*
G01*
X113352900Y-109111880D01*
G75*
G02*
X113102900Y-108861880I0J250000D01*
G01*
X113102900Y-107911880D01*
G75*
G02*
X113352900Y-107661880I250000J0D01*
G01*
X114027900Y-107661880D01*
G75*
G02*
X114277900Y-107911880I0J-250000D01*
G01*
G37*
%TD*%
%TO.C,C41*%
G36*
G01*
X117447080Y-82651180D02*
X116497080Y-82651180D01*
G75*
G02*
X116247080Y-82401180I0J250000D01*
G01*
X116247080Y-81726180D01*
G75*
G02*
X116497080Y-81476180I250000J0D01*
G01*
X117447080Y-81476180D01*
G75*
G02*
X117697080Y-81726180I0J-250000D01*
G01*
X117697080Y-82401180D01*
G75*
G02*
X117447080Y-82651180I-250000J0D01*
G01*
G37*
G36*
G01*
X117447080Y-84726180D02*
X116497080Y-84726180D01*
G75*
G02*
X116247080Y-84476180I0J250000D01*
G01*
X116247080Y-83801180D01*
G75*
G02*
X116497080Y-83551180I250000J0D01*
G01*
X117447080Y-83551180D01*
G75*
G02*
X117697080Y-83801180I0J-250000D01*
G01*
X117697080Y-84476180D01*
G75*
G02*
X117447080Y-84726180I-250000J0D01*
G01*
G37*
%TD*%
%TO.C,C19*%
G36*
G01*
X129075200Y-88170600D02*
X128125200Y-88170600D01*
G75*
G02*
X127875200Y-87920600I0J250000D01*
G01*
X127875200Y-87245600D01*
G75*
G02*
X128125200Y-86995600I250000J0D01*
G01*
X129075200Y-86995600D01*
G75*
G02*
X129325200Y-87245600I0J-250000D01*
G01*
X129325200Y-87920600D01*
G75*
G02*
X129075200Y-88170600I-250000J0D01*
G01*
G37*
G36*
G01*
X129075200Y-90245600D02*
X128125200Y-90245600D01*
G75*
G02*
X127875200Y-89995600I0J250000D01*
G01*
X127875200Y-89320600D01*
G75*
G02*
X128125200Y-89070600I250000J0D01*
G01*
X129075200Y-89070600D01*
G75*
G02*
X129325200Y-89320600I0J-250000D01*
G01*
X129325200Y-89995600D01*
G75*
G02*
X129075200Y-90245600I-250000J0D01*
G01*
G37*
%TD*%
%TO.C,C18*%
G36*
G01*
X148239500Y-88660820D02*
X147289500Y-88660820D01*
G75*
G02*
X147039500Y-88410820I0J250000D01*
G01*
X147039500Y-87735820D01*
G75*
G02*
X147289500Y-87485820I250000J0D01*
G01*
X148239500Y-87485820D01*
G75*
G02*
X148489500Y-87735820I0J-250000D01*
G01*
X148489500Y-88410820D01*
G75*
G02*
X148239500Y-88660820I-250000J0D01*
G01*
G37*
G36*
G01*
X148239500Y-90735820D02*
X147289500Y-90735820D01*
G75*
G02*
X147039500Y-90485820I0J250000D01*
G01*
X147039500Y-89810820D01*
G75*
G02*
X147289500Y-89560820I250000J0D01*
G01*
X148239500Y-89560820D01*
G75*
G02*
X148489500Y-89810820I0J-250000D01*
G01*
X148489500Y-90485820D01*
G75*
G02*
X148239500Y-90735820I-250000J0D01*
G01*
G37*
%TD*%
%TO.C,C17*%
G36*
G01*
X130865120Y-84797920D02*
X130865120Y-83847920D01*
G75*
G02*
X131115120Y-83597920I250000J0D01*
G01*
X131790120Y-83597920D01*
G75*
G02*
X132040120Y-83847920I0J-250000D01*
G01*
X132040120Y-84797920D01*
G75*
G02*
X131790120Y-85047920I-250000J0D01*
G01*
X131115120Y-85047920D01*
G75*
G02*
X130865120Y-84797920I0J250000D01*
G01*
G37*
G36*
G01*
X128790120Y-84797920D02*
X128790120Y-83847920D01*
G75*
G02*
X129040120Y-83597920I250000J0D01*
G01*
X129715120Y-83597920D01*
G75*
G02*
X129965120Y-83847920I0J-250000D01*
G01*
X129965120Y-84797920D01*
G75*
G02*
X129715120Y-85047920I-250000J0D01*
G01*
X129040120Y-85047920D01*
G75*
G02*
X128790120Y-84797920I0J250000D01*
G01*
G37*
%TD*%
%TO.C,R24*%
G36*
G01*
X153408801Y-83842400D02*
X152508799Y-83842400D01*
G75*
G02*
X152258800Y-83592401I0J249999D01*
G01*
X152258800Y-82892399D01*
G75*
G02*
X152508799Y-82642400I249999J0D01*
G01*
X153408801Y-82642400D01*
G75*
G02*
X153658800Y-82892399I0J-249999D01*
G01*
X153658800Y-83592401D01*
G75*
G02*
X153408801Y-83842400I-249999J0D01*
G01*
G37*
G36*
G01*
X153408801Y-85842400D02*
X152508799Y-85842400D01*
G75*
G02*
X152258800Y-85592401I0J249999D01*
G01*
X152258800Y-84892399D01*
G75*
G02*
X152508799Y-84642400I249999J0D01*
G01*
X153408801Y-84642400D01*
G75*
G02*
X153658800Y-84892399I0J-249999D01*
G01*
X153658800Y-85592401D01*
G75*
G02*
X153408801Y-85842400I-249999J0D01*
G01*
G37*
%TD*%
%TO.C,U2*%
G36*
G01*
X121375600Y-82888360D02*
X121375600Y-83518360D01*
G75*
G02*
X121125600Y-83768360I-250000J0D01*
G01*
X120495600Y-83768360D01*
G75*
G02*
X120245600Y-83518360I0J250000D01*
G01*
X120245600Y-82888360D01*
G75*
G02*
X120495600Y-82638360I250000J0D01*
G01*
X121125600Y-82638360D01*
G75*
G02*
X121375600Y-82888360I0J-250000D01*
G01*
G37*
G36*
G01*
X121375600Y-84288360D02*
X121375600Y-84918360D01*
G75*
G02*
X121125600Y-85168360I-250000J0D01*
G01*
X120495600Y-85168360D01*
G75*
G02*
X120245600Y-84918360I0J250000D01*
G01*
X120245600Y-84288360D01*
G75*
G02*
X120495600Y-84038360I250000J0D01*
G01*
X121125600Y-84038360D01*
G75*
G02*
X121375600Y-84288360I0J-250000D01*
G01*
G37*
G36*
G01*
X121375600Y-85688360D02*
X121375600Y-86318360D01*
G75*
G02*
X121125600Y-86568360I-250000J0D01*
G01*
X120495600Y-86568360D01*
G75*
G02*
X120245600Y-86318360I0J250000D01*
G01*
X120245600Y-85688360D01*
G75*
G02*
X120495600Y-85438360I250000J0D01*
G01*
X121125600Y-85438360D01*
G75*
G02*
X121375600Y-85688360I0J-250000D01*
G01*
G37*
G36*
G01*
X121375600Y-87088360D02*
X121375600Y-87718360D01*
G75*
G02*
X121125600Y-87968360I-250000J0D01*
G01*
X120495600Y-87968360D01*
G75*
G02*
X120245600Y-87718360I0J250000D01*
G01*
X120245600Y-87088360D01*
G75*
G02*
X120495600Y-86838360I250000J0D01*
G01*
X121125600Y-86838360D01*
G75*
G02*
X121375600Y-87088360I0J-250000D01*
G01*
G37*
G36*
G01*
X122775600Y-82888360D02*
X122775600Y-83518360D01*
G75*
G02*
X122525600Y-83768360I-250000J0D01*
G01*
X121895600Y-83768360D01*
G75*
G02*
X121645600Y-83518360I0J250000D01*
G01*
X121645600Y-82888360D01*
G75*
G02*
X121895600Y-82638360I250000J0D01*
G01*
X122525600Y-82638360D01*
G75*
G02*
X122775600Y-82888360I0J-250000D01*
G01*
G37*
G36*
G01*
X122775600Y-84288360D02*
X122775600Y-84918360D01*
G75*
G02*
X122525600Y-85168360I-250000J0D01*
G01*
X121895600Y-85168360D01*
G75*
G02*
X121645600Y-84918360I0J250000D01*
G01*
X121645600Y-84288360D01*
G75*
G02*
X121895600Y-84038360I250000J0D01*
G01*
X122525600Y-84038360D01*
G75*
G02*
X122775600Y-84288360I0J-250000D01*
G01*
G37*
G36*
G01*
X122775600Y-85688360D02*
X122775600Y-86318360D01*
G75*
G02*
X122525600Y-86568360I-250000J0D01*
G01*
X121895600Y-86568360D01*
G75*
G02*
X121645600Y-86318360I0J250000D01*
G01*
X121645600Y-85688360D01*
G75*
G02*
X121895600Y-85438360I250000J0D01*
G01*
X122525600Y-85438360D01*
G75*
G02*
X122775600Y-85688360I0J-250000D01*
G01*
G37*
G36*
G01*
X122775600Y-87088360D02*
X122775600Y-87718360D01*
G75*
G02*
X122525600Y-87968360I-250000J0D01*
G01*
X121895600Y-87968360D01*
G75*
G02*
X121645600Y-87718360I0J250000D01*
G01*
X121645600Y-87088360D01*
G75*
G02*
X121895600Y-86838360I250000J0D01*
G01*
X122525600Y-86838360D01*
G75*
G02*
X122775600Y-87088360I0J-250000D01*
G01*
G37*
G36*
G01*
X124175600Y-82888360D02*
X124175600Y-83518360D01*
G75*
G02*
X123925600Y-83768360I-250000J0D01*
G01*
X123295600Y-83768360D01*
G75*
G02*
X123045600Y-83518360I0J250000D01*
G01*
X123045600Y-82888360D01*
G75*
G02*
X123295600Y-82638360I250000J0D01*
G01*
X123925600Y-82638360D01*
G75*
G02*
X124175600Y-82888360I0J-250000D01*
G01*
G37*
G36*
G01*
X124175600Y-84288360D02*
X124175600Y-84918360D01*
G75*
G02*
X123925600Y-85168360I-250000J0D01*
G01*
X123295600Y-85168360D01*
G75*
G02*
X123045600Y-84918360I0J250000D01*
G01*
X123045600Y-84288360D01*
G75*
G02*
X123295600Y-84038360I250000J0D01*
G01*
X123925600Y-84038360D01*
G75*
G02*
X124175600Y-84288360I0J-250000D01*
G01*
G37*
G36*
G01*
X124175600Y-85688360D02*
X124175600Y-86318360D01*
G75*
G02*
X123925600Y-86568360I-250000J0D01*
G01*
X123295600Y-86568360D01*
G75*
G02*
X123045600Y-86318360I0J250000D01*
G01*
X123045600Y-85688360D01*
G75*
G02*
X123295600Y-85438360I250000J0D01*
G01*
X123925600Y-85438360D01*
G75*
G02*
X124175600Y-85688360I0J-250000D01*
G01*
G37*
G36*
G01*
X124175600Y-87088360D02*
X124175600Y-87718360D01*
G75*
G02*
X123925600Y-87968360I-250000J0D01*
G01*
X123295600Y-87968360D01*
G75*
G02*
X123045600Y-87718360I0J250000D01*
G01*
X123045600Y-87088360D01*
G75*
G02*
X123295600Y-86838360I250000J0D01*
G01*
X123925600Y-86838360D01*
G75*
G02*
X124175600Y-87088360I0J-250000D01*
G01*
G37*
G36*
G01*
X125575600Y-82888360D02*
X125575600Y-83518360D01*
G75*
G02*
X125325600Y-83768360I-250000J0D01*
G01*
X124695600Y-83768360D01*
G75*
G02*
X124445600Y-83518360I0J250000D01*
G01*
X124445600Y-82888360D01*
G75*
G02*
X124695600Y-82638360I250000J0D01*
G01*
X125325600Y-82638360D01*
G75*
G02*
X125575600Y-82888360I0J-250000D01*
G01*
G37*
G36*
G01*
X125575600Y-84288360D02*
X125575600Y-84918360D01*
G75*
G02*
X125325600Y-85168360I-250000J0D01*
G01*
X124695600Y-85168360D01*
G75*
G02*
X124445600Y-84918360I0J250000D01*
G01*
X124445600Y-84288360D01*
G75*
G02*
X124695600Y-84038360I250000J0D01*
G01*
X125325600Y-84038360D01*
G75*
G02*
X125575600Y-84288360I0J-250000D01*
G01*
G37*
G36*
G01*
X125575600Y-85688360D02*
X125575600Y-86318360D01*
G75*
G02*
X125325600Y-86568360I-250000J0D01*
G01*
X124695600Y-86568360D01*
G75*
G02*
X124445600Y-86318360I0J250000D01*
G01*
X124445600Y-85688360D01*
G75*
G02*
X124695600Y-85438360I250000J0D01*
G01*
X125325600Y-85438360D01*
G75*
G02*
X125575600Y-85688360I0J-250000D01*
G01*
G37*
G36*
G01*
X125575600Y-87088360D02*
X125575600Y-87718360D01*
G75*
G02*
X125325600Y-87968360I-250000J0D01*
G01*
X124695600Y-87968360D01*
G75*
G02*
X124445600Y-87718360I0J250000D01*
G01*
X124445600Y-87088360D01*
G75*
G02*
X124695600Y-86838360I250000J0D01*
G01*
X125325600Y-86838360D01*
G75*
G02*
X125575600Y-87088360I0J-250000D01*
G01*
G37*
G36*
G01*
X125785600Y-88365860D02*
X125785600Y-89115860D01*
G75*
G02*
X125723100Y-89178360I-62500J0D01*
G01*
X125598100Y-89178360D01*
G75*
G02*
X125535600Y-89115860I0J62500D01*
G01*
X125535600Y-88365860D01*
G75*
G02*
X125598100Y-88303360I62500J0D01*
G01*
X125723100Y-88303360D01*
G75*
G02*
X125785600Y-88365860I0J-62500D01*
G01*
G37*
G36*
G01*
X125285600Y-88365860D02*
X125285600Y-89115860D01*
G75*
G02*
X125223100Y-89178360I-62500J0D01*
G01*
X125098100Y-89178360D01*
G75*
G02*
X125035600Y-89115860I0J62500D01*
G01*
X125035600Y-88365860D01*
G75*
G02*
X125098100Y-88303360I62500J0D01*
G01*
X125223100Y-88303360D01*
G75*
G02*
X125285600Y-88365860I0J-62500D01*
G01*
G37*
G36*
G01*
X124785600Y-88365860D02*
X124785600Y-89115860D01*
G75*
G02*
X124723100Y-89178360I-62500J0D01*
G01*
X124598100Y-89178360D01*
G75*
G02*
X124535600Y-89115860I0J62500D01*
G01*
X124535600Y-88365860D01*
G75*
G02*
X124598100Y-88303360I62500J0D01*
G01*
X124723100Y-88303360D01*
G75*
G02*
X124785600Y-88365860I0J-62500D01*
G01*
G37*
G36*
G01*
X124285600Y-88365860D02*
X124285600Y-89115860D01*
G75*
G02*
X124223100Y-89178360I-62500J0D01*
G01*
X124098100Y-89178360D01*
G75*
G02*
X124035600Y-89115860I0J62500D01*
G01*
X124035600Y-88365860D01*
G75*
G02*
X124098100Y-88303360I62500J0D01*
G01*
X124223100Y-88303360D01*
G75*
G02*
X124285600Y-88365860I0J-62500D01*
G01*
G37*
G36*
G01*
X123785600Y-88365860D02*
X123785600Y-89115860D01*
G75*
G02*
X123723100Y-89178360I-62500J0D01*
G01*
X123598100Y-89178360D01*
G75*
G02*
X123535600Y-89115860I0J62500D01*
G01*
X123535600Y-88365860D01*
G75*
G02*
X123598100Y-88303360I62500J0D01*
G01*
X123723100Y-88303360D01*
G75*
G02*
X123785600Y-88365860I0J-62500D01*
G01*
G37*
G36*
G01*
X123285600Y-88365860D02*
X123285600Y-89115860D01*
G75*
G02*
X123223100Y-89178360I-62500J0D01*
G01*
X123098100Y-89178360D01*
G75*
G02*
X123035600Y-89115860I0J62500D01*
G01*
X123035600Y-88365860D01*
G75*
G02*
X123098100Y-88303360I62500J0D01*
G01*
X123223100Y-88303360D01*
G75*
G02*
X123285600Y-88365860I0J-62500D01*
G01*
G37*
G36*
G01*
X122785600Y-88365860D02*
X122785600Y-89115860D01*
G75*
G02*
X122723100Y-89178360I-62500J0D01*
G01*
X122598100Y-89178360D01*
G75*
G02*
X122535600Y-89115860I0J62500D01*
G01*
X122535600Y-88365860D01*
G75*
G02*
X122598100Y-88303360I62500J0D01*
G01*
X122723100Y-88303360D01*
G75*
G02*
X122785600Y-88365860I0J-62500D01*
G01*
G37*
G36*
G01*
X122285600Y-88365860D02*
X122285600Y-89115860D01*
G75*
G02*
X122223100Y-89178360I-62500J0D01*
G01*
X122098100Y-89178360D01*
G75*
G02*
X122035600Y-89115860I0J62500D01*
G01*
X122035600Y-88365860D01*
G75*
G02*
X122098100Y-88303360I62500J0D01*
G01*
X122223100Y-88303360D01*
G75*
G02*
X122285600Y-88365860I0J-62500D01*
G01*
G37*
G36*
G01*
X121785600Y-88365860D02*
X121785600Y-89115860D01*
G75*
G02*
X121723100Y-89178360I-62500J0D01*
G01*
X121598100Y-89178360D01*
G75*
G02*
X121535600Y-89115860I0J62500D01*
G01*
X121535600Y-88365860D01*
G75*
G02*
X121598100Y-88303360I62500J0D01*
G01*
X121723100Y-88303360D01*
G75*
G02*
X121785600Y-88365860I0J-62500D01*
G01*
G37*
G36*
G01*
X121285600Y-88365860D02*
X121285600Y-89115860D01*
G75*
G02*
X121223100Y-89178360I-62500J0D01*
G01*
X121098100Y-89178360D01*
G75*
G02*
X121035600Y-89115860I0J62500D01*
G01*
X121035600Y-88365860D01*
G75*
G02*
X121098100Y-88303360I62500J0D01*
G01*
X121223100Y-88303360D01*
G75*
G02*
X121285600Y-88365860I0J-62500D01*
G01*
G37*
G36*
G01*
X120785600Y-88365860D02*
X120785600Y-89115860D01*
G75*
G02*
X120723100Y-89178360I-62500J0D01*
G01*
X120598100Y-89178360D01*
G75*
G02*
X120535600Y-89115860I0J62500D01*
G01*
X120535600Y-88365860D01*
G75*
G02*
X120598100Y-88303360I62500J0D01*
G01*
X120723100Y-88303360D01*
G75*
G02*
X120785600Y-88365860I0J-62500D01*
G01*
G37*
G36*
G01*
X120285600Y-88365860D02*
X120285600Y-89115860D01*
G75*
G02*
X120223100Y-89178360I-62500J0D01*
G01*
X120098100Y-89178360D01*
G75*
G02*
X120035600Y-89115860I0J62500D01*
G01*
X120035600Y-88365860D01*
G75*
G02*
X120098100Y-88303360I62500J0D01*
G01*
X120223100Y-88303360D01*
G75*
G02*
X120285600Y-88365860I0J-62500D01*
G01*
G37*
G36*
G01*
X119910600Y-87990860D02*
X119910600Y-88115860D01*
G75*
G02*
X119848100Y-88178360I-62500J0D01*
G01*
X119098100Y-88178360D01*
G75*
G02*
X119035600Y-88115860I0J62500D01*
G01*
X119035600Y-87990860D01*
G75*
G02*
X119098100Y-87928360I62500J0D01*
G01*
X119848100Y-87928360D01*
G75*
G02*
X119910600Y-87990860I0J-62500D01*
G01*
G37*
G36*
G01*
X119910600Y-87490860D02*
X119910600Y-87615860D01*
G75*
G02*
X119848100Y-87678360I-62500J0D01*
G01*
X119098100Y-87678360D01*
G75*
G02*
X119035600Y-87615860I0J62500D01*
G01*
X119035600Y-87490860D01*
G75*
G02*
X119098100Y-87428360I62500J0D01*
G01*
X119848100Y-87428360D01*
G75*
G02*
X119910600Y-87490860I0J-62500D01*
G01*
G37*
G36*
G01*
X119910600Y-86990860D02*
X119910600Y-87115860D01*
G75*
G02*
X119848100Y-87178360I-62500J0D01*
G01*
X119098100Y-87178360D01*
G75*
G02*
X119035600Y-87115860I0J62500D01*
G01*
X119035600Y-86990860D01*
G75*
G02*
X119098100Y-86928360I62500J0D01*
G01*
X119848100Y-86928360D01*
G75*
G02*
X119910600Y-86990860I0J-62500D01*
G01*
G37*
G36*
G01*
X119910600Y-86490860D02*
X119910600Y-86615860D01*
G75*
G02*
X119848100Y-86678360I-62500J0D01*
G01*
X119098100Y-86678360D01*
G75*
G02*
X119035600Y-86615860I0J62500D01*
G01*
X119035600Y-86490860D01*
G75*
G02*
X119098100Y-86428360I62500J0D01*
G01*
X119848100Y-86428360D01*
G75*
G02*
X119910600Y-86490860I0J-62500D01*
G01*
G37*
G36*
G01*
X119910600Y-85990860D02*
X119910600Y-86115860D01*
G75*
G02*
X119848100Y-86178360I-62500J0D01*
G01*
X119098100Y-86178360D01*
G75*
G02*
X119035600Y-86115860I0J62500D01*
G01*
X119035600Y-85990860D01*
G75*
G02*
X119098100Y-85928360I62500J0D01*
G01*
X119848100Y-85928360D01*
G75*
G02*
X119910600Y-85990860I0J-62500D01*
G01*
G37*
G36*
G01*
X119910600Y-85490860D02*
X119910600Y-85615860D01*
G75*
G02*
X119848100Y-85678360I-62500J0D01*
G01*
X119098100Y-85678360D01*
G75*
G02*
X119035600Y-85615860I0J62500D01*
G01*
X119035600Y-85490860D01*
G75*
G02*
X119098100Y-85428360I62500J0D01*
G01*
X119848100Y-85428360D01*
G75*
G02*
X119910600Y-85490860I0J-62500D01*
G01*
G37*
G36*
G01*
X119910600Y-84990860D02*
X119910600Y-85115860D01*
G75*
G02*
X119848100Y-85178360I-62500J0D01*
G01*
X119098100Y-85178360D01*
G75*
G02*
X119035600Y-85115860I0J62500D01*
G01*
X119035600Y-84990860D01*
G75*
G02*
X119098100Y-84928360I62500J0D01*
G01*
X119848100Y-84928360D01*
G75*
G02*
X119910600Y-84990860I0J-62500D01*
G01*
G37*
G36*
G01*
X119910600Y-84490860D02*
X119910600Y-84615860D01*
G75*
G02*
X119848100Y-84678360I-62500J0D01*
G01*
X119098100Y-84678360D01*
G75*
G02*
X119035600Y-84615860I0J62500D01*
G01*
X119035600Y-84490860D01*
G75*
G02*
X119098100Y-84428360I62500J0D01*
G01*
X119848100Y-84428360D01*
G75*
G02*
X119910600Y-84490860I0J-62500D01*
G01*
G37*
G36*
G01*
X119910600Y-83990860D02*
X119910600Y-84115860D01*
G75*
G02*
X119848100Y-84178360I-62500J0D01*
G01*
X119098100Y-84178360D01*
G75*
G02*
X119035600Y-84115860I0J62500D01*
G01*
X119035600Y-83990860D01*
G75*
G02*
X119098100Y-83928360I62500J0D01*
G01*
X119848100Y-83928360D01*
G75*
G02*
X119910600Y-83990860I0J-62500D01*
G01*
G37*
G36*
G01*
X119910600Y-83490860D02*
X119910600Y-83615860D01*
G75*
G02*
X119848100Y-83678360I-62500J0D01*
G01*
X119098100Y-83678360D01*
G75*
G02*
X119035600Y-83615860I0J62500D01*
G01*
X119035600Y-83490860D01*
G75*
G02*
X119098100Y-83428360I62500J0D01*
G01*
X119848100Y-83428360D01*
G75*
G02*
X119910600Y-83490860I0J-62500D01*
G01*
G37*
G36*
G01*
X119910600Y-82990860D02*
X119910600Y-83115860D01*
G75*
G02*
X119848100Y-83178360I-62500J0D01*
G01*
X119098100Y-83178360D01*
G75*
G02*
X119035600Y-83115860I0J62500D01*
G01*
X119035600Y-82990860D01*
G75*
G02*
X119098100Y-82928360I62500J0D01*
G01*
X119848100Y-82928360D01*
G75*
G02*
X119910600Y-82990860I0J-62500D01*
G01*
G37*
G36*
G01*
X119910600Y-82490860D02*
X119910600Y-82615860D01*
G75*
G02*
X119848100Y-82678360I-62500J0D01*
G01*
X119098100Y-82678360D01*
G75*
G02*
X119035600Y-82615860I0J62500D01*
G01*
X119035600Y-82490860D01*
G75*
G02*
X119098100Y-82428360I62500J0D01*
G01*
X119848100Y-82428360D01*
G75*
G02*
X119910600Y-82490860I0J-62500D01*
G01*
G37*
G36*
G01*
X120285600Y-81490860D02*
X120285600Y-82240860D01*
G75*
G02*
X120223100Y-82303360I-62500J0D01*
G01*
X120098100Y-82303360D01*
G75*
G02*
X120035600Y-82240860I0J62500D01*
G01*
X120035600Y-81490860D01*
G75*
G02*
X120098100Y-81428360I62500J0D01*
G01*
X120223100Y-81428360D01*
G75*
G02*
X120285600Y-81490860I0J-62500D01*
G01*
G37*
G36*
G01*
X120785600Y-81490860D02*
X120785600Y-82240860D01*
G75*
G02*
X120723100Y-82303360I-62500J0D01*
G01*
X120598100Y-82303360D01*
G75*
G02*
X120535600Y-82240860I0J62500D01*
G01*
X120535600Y-81490860D01*
G75*
G02*
X120598100Y-81428360I62500J0D01*
G01*
X120723100Y-81428360D01*
G75*
G02*
X120785600Y-81490860I0J-62500D01*
G01*
G37*
G36*
G01*
X121285600Y-81490860D02*
X121285600Y-82240860D01*
G75*
G02*
X121223100Y-82303360I-62500J0D01*
G01*
X121098100Y-82303360D01*
G75*
G02*
X121035600Y-82240860I0J62500D01*
G01*
X121035600Y-81490860D01*
G75*
G02*
X121098100Y-81428360I62500J0D01*
G01*
X121223100Y-81428360D01*
G75*
G02*
X121285600Y-81490860I0J-62500D01*
G01*
G37*
G36*
G01*
X121785600Y-81490860D02*
X121785600Y-82240860D01*
G75*
G02*
X121723100Y-82303360I-62500J0D01*
G01*
X121598100Y-82303360D01*
G75*
G02*
X121535600Y-82240860I0J62500D01*
G01*
X121535600Y-81490860D01*
G75*
G02*
X121598100Y-81428360I62500J0D01*
G01*
X121723100Y-81428360D01*
G75*
G02*
X121785600Y-81490860I0J-62500D01*
G01*
G37*
G36*
G01*
X122285600Y-81490860D02*
X122285600Y-82240860D01*
G75*
G02*
X122223100Y-82303360I-62500J0D01*
G01*
X122098100Y-82303360D01*
G75*
G02*
X122035600Y-82240860I0J62500D01*
G01*
X122035600Y-81490860D01*
G75*
G02*
X122098100Y-81428360I62500J0D01*
G01*
X122223100Y-81428360D01*
G75*
G02*
X122285600Y-81490860I0J-62500D01*
G01*
G37*
G36*
G01*
X122785600Y-81490860D02*
X122785600Y-82240860D01*
G75*
G02*
X122723100Y-82303360I-62500J0D01*
G01*
X122598100Y-82303360D01*
G75*
G02*
X122535600Y-82240860I0J62500D01*
G01*
X122535600Y-81490860D01*
G75*
G02*
X122598100Y-81428360I62500J0D01*
G01*
X122723100Y-81428360D01*
G75*
G02*
X122785600Y-81490860I0J-62500D01*
G01*
G37*
G36*
G01*
X123285600Y-81490860D02*
X123285600Y-82240860D01*
G75*
G02*
X123223100Y-82303360I-62500J0D01*
G01*
X123098100Y-82303360D01*
G75*
G02*
X123035600Y-82240860I0J62500D01*
G01*
X123035600Y-81490860D01*
G75*
G02*
X123098100Y-81428360I62500J0D01*
G01*
X123223100Y-81428360D01*
G75*
G02*
X123285600Y-81490860I0J-62500D01*
G01*
G37*
G36*
G01*
X123785600Y-81490860D02*
X123785600Y-82240860D01*
G75*
G02*
X123723100Y-82303360I-62500J0D01*
G01*
X123598100Y-82303360D01*
G75*
G02*
X123535600Y-82240860I0J62500D01*
G01*
X123535600Y-81490860D01*
G75*
G02*
X123598100Y-81428360I62500J0D01*
G01*
X123723100Y-81428360D01*
G75*
G02*
X123785600Y-81490860I0J-62500D01*
G01*
G37*
G36*
G01*
X124285600Y-81490860D02*
X124285600Y-82240860D01*
G75*
G02*
X124223100Y-82303360I-62500J0D01*
G01*
X124098100Y-82303360D01*
G75*
G02*
X124035600Y-82240860I0J62500D01*
G01*
X124035600Y-81490860D01*
G75*
G02*
X124098100Y-81428360I62500J0D01*
G01*
X124223100Y-81428360D01*
G75*
G02*
X124285600Y-81490860I0J-62500D01*
G01*
G37*
G36*
G01*
X124785600Y-81490860D02*
X124785600Y-82240860D01*
G75*
G02*
X124723100Y-82303360I-62500J0D01*
G01*
X124598100Y-82303360D01*
G75*
G02*
X124535600Y-82240860I0J62500D01*
G01*
X124535600Y-81490860D01*
G75*
G02*
X124598100Y-81428360I62500J0D01*
G01*
X124723100Y-81428360D01*
G75*
G02*
X124785600Y-81490860I0J-62500D01*
G01*
G37*
G36*
G01*
X125285600Y-81490860D02*
X125285600Y-82240860D01*
G75*
G02*
X125223100Y-82303360I-62500J0D01*
G01*
X125098100Y-82303360D01*
G75*
G02*
X125035600Y-82240860I0J62500D01*
G01*
X125035600Y-81490860D01*
G75*
G02*
X125098100Y-81428360I62500J0D01*
G01*
X125223100Y-81428360D01*
G75*
G02*
X125285600Y-81490860I0J-62500D01*
G01*
G37*
G36*
G01*
X125785600Y-81490860D02*
X125785600Y-82240860D01*
G75*
G02*
X125723100Y-82303360I-62500J0D01*
G01*
X125598100Y-82303360D01*
G75*
G02*
X125535600Y-82240860I0J62500D01*
G01*
X125535600Y-81490860D01*
G75*
G02*
X125598100Y-81428360I62500J0D01*
G01*
X125723100Y-81428360D01*
G75*
G02*
X125785600Y-81490860I0J-62500D01*
G01*
G37*
G36*
G01*
X126785600Y-82490860D02*
X126785600Y-82615860D01*
G75*
G02*
X126723100Y-82678360I-62500J0D01*
G01*
X125973100Y-82678360D01*
G75*
G02*
X125910600Y-82615860I0J62500D01*
G01*
X125910600Y-82490860D01*
G75*
G02*
X125973100Y-82428360I62500J0D01*
G01*
X126723100Y-82428360D01*
G75*
G02*
X126785600Y-82490860I0J-62500D01*
G01*
G37*
G36*
G01*
X126785600Y-82990860D02*
X126785600Y-83115860D01*
G75*
G02*
X126723100Y-83178360I-62500J0D01*
G01*
X125973100Y-83178360D01*
G75*
G02*
X125910600Y-83115860I0J62500D01*
G01*
X125910600Y-82990860D01*
G75*
G02*
X125973100Y-82928360I62500J0D01*
G01*
X126723100Y-82928360D01*
G75*
G02*
X126785600Y-82990860I0J-62500D01*
G01*
G37*
G36*
G01*
X126785600Y-83490860D02*
X126785600Y-83615860D01*
G75*
G02*
X126723100Y-83678360I-62500J0D01*
G01*
X125973100Y-83678360D01*
G75*
G02*
X125910600Y-83615860I0J62500D01*
G01*
X125910600Y-83490860D01*
G75*
G02*
X125973100Y-83428360I62500J0D01*
G01*
X126723100Y-83428360D01*
G75*
G02*
X126785600Y-83490860I0J-62500D01*
G01*
G37*
G36*
G01*
X126785600Y-83990860D02*
X126785600Y-84115860D01*
G75*
G02*
X126723100Y-84178360I-62500J0D01*
G01*
X125973100Y-84178360D01*
G75*
G02*
X125910600Y-84115860I0J62500D01*
G01*
X125910600Y-83990860D01*
G75*
G02*
X125973100Y-83928360I62500J0D01*
G01*
X126723100Y-83928360D01*
G75*
G02*
X126785600Y-83990860I0J-62500D01*
G01*
G37*
G36*
G01*
X126785600Y-84490860D02*
X126785600Y-84615860D01*
G75*
G02*
X126723100Y-84678360I-62500J0D01*
G01*
X125973100Y-84678360D01*
G75*
G02*
X125910600Y-84615860I0J62500D01*
G01*
X125910600Y-84490860D01*
G75*
G02*
X125973100Y-84428360I62500J0D01*
G01*
X126723100Y-84428360D01*
G75*
G02*
X126785600Y-84490860I0J-62500D01*
G01*
G37*
G36*
G01*
X126785600Y-84990860D02*
X126785600Y-85115860D01*
G75*
G02*
X126723100Y-85178360I-62500J0D01*
G01*
X125973100Y-85178360D01*
G75*
G02*
X125910600Y-85115860I0J62500D01*
G01*
X125910600Y-84990860D01*
G75*
G02*
X125973100Y-84928360I62500J0D01*
G01*
X126723100Y-84928360D01*
G75*
G02*
X126785600Y-84990860I0J-62500D01*
G01*
G37*
G36*
G01*
X126785600Y-85490860D02*
X126785600Y-85615860D01*
G75*
G02*
X126723100Y-85678360I-62500J0D01*
G01*
X125973100Y-85678360D01*
G75*
G02*
X125910600Y-85615860I0J62500D01*
G01*
X125910600Y-85490860D01*
G75*
G02*
X125973100Y-85428360I62500J0D01*
G01*
X126723100Y-85428360D01*
G75*
G02*
X126785600Y-85490860I0J-62500D01*
G01*
G37*
G36*
G01*
X126785600Y-85990860D02*
X126785600Y-86115860D01*
G75*
G02*
X126723100Y-86178360I-62500J0D01*
G01*
X125973100Y-86178360D01*
G75*
G02*
X125910600Y-86115860I0J62500D01*
G01*
X125910600Y-85990860D01*
G75*
G02*
X125973100Y-85928360I62500J0D01*
G01*
X126723100Y-85928360D01*
G75*
G02*
X126785600Y-85990860I0J-62500D01*
G01*
G37*
G36*
G01*
X126785600Y-86490860D02*
X126785600Y-86615860D01*
G75*
G02*
X126723100Y-86678360I-62500J0D01*
G01*
X125973100Y-86678360D01*
G75*
G02*
X125910600Y-86615860I0J62500D01*
G01*
X125910600Y-86490860D01*
G75*
G02*
X125973100Y-86428360I62500J0D01*
G01*
X126723100Y-86428360D01*
G75*
G02*
X126785600Y-86490860I0J-62500D01*
G01*
G37*
G36*
G01*
X126785600Y-86990860D02*
X126785600Y-87115860D01*
G75*
G02*
X126723100Y-87178360I-62500J0D01*
G01*
X125973100Y-87178360D01*
G75*
G02*
X125910600Y-87115860I0J62500D01*
G01*
X125910600Y-86990860D01*
G75*
G02*
X125973100Y-86928360I62500J0D01*
G01*
X126723100Y-86928360D01*
G75*
G02*
X126785600Y-86990860I0J-62500D01*
G01*
G37*
G36*
G01*
X126785600Y-87490860D02*
X126785600Y-87615860D01*
G75*
G02*
X126723100Y-87678360I-62500J0D01*
G01*
X125973100Y-87678360D01*
G75*
G02*
X125910600Y-87615860I0J62500D01*
G01*
X125910600Y-87490860D01*
G75*
G02*
X125973100Y-87428360I62500J0D01*
G01*
X126723100Y-87428360D01*
G75*
G02*
X126785600Y-87490860I0J-62500D01*
G01*
G37*
G36*
G01*
X126785600Y-87990860D02*
X126785600Y-88115860D01*
G75*
G02*
X126723100Y-88178360I-62500J0D01*
G01*
X125973100Y-88178360D01*
G75*
G02*
X125910600Y-88115860I0J62500D01*
G01*
X125910600Y-87990860D01*
G75*
G02*
X125973100Y-87928360I62500J0D01*
G01*
X126723100Y-87928360D01*
G75*
G02*
X126785600Y-87990860I0J-62500D01*
G01*
G37*
%TD*%
%TO.C,C2*%
G36*
G01*
X124119403Y-118030420D02*
X122819397Y-118030420D01*
G75*
G02*
X122569400Y-117780423I0J249997D01*
G01*
X122569400Y-116955417D01*
G75*
G02*
X122819397Y-116705420I249997J0D01*
G01*
X124119403Y-116705420D01*
G75*
G02*
X124369400Y-116955417I0J-249997D01*
G01*
X124369400Y-117780423D01*
G75*
G02*
X124119403Y-118030420I-249997J0D01*
G01*
G37*
G36*
G01*
X124119403Y-121155420D02*
X122819397Y-121155420D01*
G75*
G02*
X122569400Y-120905423I0J249997D01*
G01*
X122569400Y-120080417D01*
G75*
G02*
X122819397Y-119830420I249997J0D01*
G01*
X124119403Y-119830420D01*
G75*
G02*
X124369400Y-120080417I0J-249997D01*
G01*
X124369400Y-120905423D01*
G75*
G02*
X124119403Y-121155420I-249997J0D01*
G01*
G37*
%TD*%
%TO.C,C1*%
G36*
G01*
X114289603Y-120829100D02*
X112989597Y-120829100D01*
G75*
G02*
X112739600Y-120579103I0J249997D01*
G01*
X112739600Y-119754097D01*
G75*
G02*
X112989597Y-119504100I249997J0D01*
G01*
X114289603Y-119504100D01*
G75*
G02*
X114539600Y-119754097I0J-249997D01*
G01*
X114539600Y-120579103D01*
G75*
G02*
X114289603Y-120829100I-249997J0D01*
G01*
G37*
G36*
G01*
X114289603Y-123954100D02*
X112989597Y-123954100D01*
G75*
G02*
X112739600Y-123704103I0J249997D01*
G01*
X112739600Y-122879097D01*
G75*
G02*
X112989597Y-122629100I249997J0D01*
G01*
X114289603Y-122629100D01*
G75*
G02*
X114539600Y-122879097I0J-249997D01*
G01*
X114539600Y-123704103D01*
G75*
G02*
X114289603Y-123954100I-249997J0D01*
G01*
G37*
%TD*%
D18*
%TO.C,U1*%
X117805200Y-124410000D03*
X120345200Y-124410000D03*
X122885200Y-124410000D03*
%TD*%
D19*
%TO.C,U5*%
X174147800Y-72039600D03*
X174147800Y-74039600D03*
X174147800Y-76039600D03*
X174147800Y-78039600D03*
X174147800Y-80039600D03*
X174147800Y-82039600D03*
X174147800Y-84039600D03*
X174147800Y-86039600D03*
D20*
X171547800Y-87539600D03*
X169547800Y-87539600D03*
X167547800Y-87539600D03*
X165547800Y-87539600D03*
X163547800Y-87539600D03*
X161547800Y-87539600D03*
D19*
X158947800Y-86039600D03*
X158947800Y-84039600D03*
X158947800Y-82039600D03*
X158947800Y-80039600D03*
X158947800Y-78039600D03*
X158947800Y-76039600D03*
X158947800Y-74039600D03*
X158947800Y-72039600D03*
%TD*%
D21*
%TO.C,U4*%
X136713000Y-92042000D03*
X134813000Y-91092000D03*
X134813000Y-92042000D03*
X136713000Y-91092000D03*
D22*
X135763000Y-91567000D03*
%TD*%
%TO.C,R3*%
G36*
G01*
X147852979Y-74368100D02*
X148752981Y-74368100D01*
G75*
G02*
X149002980Y-74618099I0J-249999D01*
G01*
X149002980Y-75318101D01*
G75*
G02*
X148752981Y-75568100I-249999J0D01*
G01*
X147852979Y-75568100D01*
G75*
G02*
X147602980Y-75318101I0J249999D01*
G01*
X147602980Y-74618099D01*
G75*
G02*
X147852979Y-74368100I249999J0D01*
G01*
G37*
G36*
G01*
X147852979Y-72368100D02*
X148752981Y-72368100D01*
G75*
G02*
X149002980Y-72618099I0J-249999D01*
G01*
X149002980Y-73318101D01*
G75*
G02*
X148752981Y-73568100I-249999J0D01*
G01*
X147852979Y-73568100D01*
G75*
G02*
X147602980Y-73318101I0J249999D01*
G01*
X147602980Y-72618099D01*
G75*
G02*
X147852979Y-72368100I249999J0D01*
G01*
G37*
%TD*%
%TO.C,R2*%
G36*
G01*
X122320100Y-91335439D02*
X122320100Y-92235441D01*
G75*
G02*
X122070101Y-92485440I-249999J0D01*
G01*
X121370099Y-92485440D01*
G75*
G02*
X121120100Y-92235441I0J249999D01*
G01*
X121120100Y-91335439D01*
G75*
G02*
X121370099Y-91085440I249999J0D01*
G01*
X122070101Y-91085440D01*
G75*
G02*
X122320100Y-91335439I0J-249999D01*
G01*
G37*
G36*
G01*
X124320100Y-91335439D02*
X124320100Y-92235441D01*
G75*
G02*
X124070101Y-92485440I-249999J0D01*
G01*
X123370099Y-92485440D01*
G75*
G02*
X123120100Y-92235441I0J249999D01*
G01*
X123120100Y-91335439D01*
G75*
G02*
X123370099Y-91085440I249999J0D01*
G01*
X124070101Y-91085440D01*
G75*
G02*
X124320100Y-91335439I0J-249999D01*
G01*
G37*
%TD*%
%TO.C,R1*%
G36*
G01*
X126218240Y-91322739D02*
X126218240Y-92222741D01*
G75*
G02*
X125968241Y-92472740I-249999J0D01*
G01*
X125268239Y-92472740D01*
G75*
G02*
X125018240Y-92222741I0J249999D01*
G01*
X125018240Y-91322739D01*
G75*
G02*
X125268239Y-91072740I249999J0D01*
G01*
X125968241Y-91072740D01*
G75*
G02*
X126218240Y-91322739I0J-249999D01*
G01*
G37*
G36*
G01*
X128218240Y-91322739D02*
X128218240Y-92222741D01*
G75*
G02*
X127968241Y-92472740I-249999J0D01*
G01*
X127268239Y-92472740D01*
G75*
G02*
X127018240Y-92222741I0J249999D01*
G01*
X127018240Y-91322739D01*
G75*
G02*
X127268239Y-91072740I249999J0D01*
G01*
X127968241Y-91072740D01*
G75*
G02*
X128218240Y-91322739I0J-249999D01*
G01*
G37*
%TD*%
%TO.C,C16*%
G36*
G01*
X150494980Y-74431400D02*
X151444980Y-74431400D01*
G75*
G02*
X151694980Y-74681400I0J-250000D01*
G01*
X151694980Y-75356400D01*
G75*
G02*
X151444980Y-75606400I-250000J0D01*
G01*
X150494980Y-75606400D01*
G75*
G02*
X150244980Y-75356400I0J250000D01*
G01*
X150244980Y-74681400D01*
G75*
G02*
X150494980Y-74431400I250000J0D01*
G01*
G37*
G36*
G01*
X150494980Y-72356400D02*
X151444980Y-72356400D01*
G75*
G02*
X151694980Y-72606400I0J-250000D01*
G01*
X151694980Y-73281400D01*
G75*
G02*
X151444980Y-73531400I-250000J0D01*
G01*
X150494980Y-73531400D01*
G75*
G02*
X150244980Y-73281400I0J250000D01*
G01*
X150244980Y-72606400D01*
G75*
G02*
X150494980Y-72356400I250000J0D01*
G01*
G37*
%TD*%
%TO.C,C13*%
G36*
G01*
X154032800Y-106840000D02*
X154032800Y-107790000D01*
G75*
G02*
X153782800Y-108040000I-250000J0D01*
G01*
X153107800Y-108040000D01*
G75*
G02*
X152857800Y-107790000I0J250000D01*
G01*
X152857800Y-106840000D01*
G75*
G02*
X153107800Y-106590000I250000J0D01*
G01*
X153782800Y-106590000D01*
G75*
G02*
X154032800Y-106840000I0J-250000D01*
G01*
G37*
G36*
G01*
X156107800Y-106840000D02*
X156107800Y-107790000D01*
G75*
G02*
X155857800Y-108040000I-250000J0D01*
G01*
X155182800Y-108040000D01*
G75*
G02*
X154932800Y-107790000I0J250000D01*
G01*
X154932800Y-106840000D01*
G75*
G02*
X155182800Y-106590000I250000J0D01*
G01*
X155857800Y-106590000D01*
G75*
G02*
X156107800Y-106840000I0J-250000D01*
G01*
G37*
%TD*%
%TO.C,C12*%
G36*
G01*
X155150400Y-102420400D02*
X155150400Y-103370400D01*
G75*
G02*
X154900400Y-103620400I-250000J0D01*
G01*
X154225400Y-103620400D01*
G75*
G02*
X153975400Y-103370400I0J250000D01*
G01*
X153975400Y-102420400D01*
G75*
G02*
X154225400Y-102170400I250000J0D01*
G01*
X154900400Y-102170400D01*
G75*
G02*
X155150400Y-102420400I0J-250000D01*
G01*
G37*
G36*
G01*
X157225400Y-102420400D02*
X157225400Y-103370400D01*
G75*
G02*
X156975400Y-103620400I-250000J0D01*
G01*
X156300400Y-103620400D01*
G75*
G02*
X156050400Y-103370400I0J250000D01*
G01*
X156050400Y-102420400D01*
G75*
G02*
X156300400Y-102170400I250000J0D01*
G01*
X156975400Y-102170400D01*
G75*
G02*
X157225400Y-102420400I0J-250000D01*
G01*
G37*
%TD*%
%TO.C,C4*%
G36*
G01*
X154079700Y-109659400D02*
X154079700Y-110609400D01*
G75*
G02*
X153829700Y-110859400I-250000J0D01*
G01*
X153154700Y-110859400D01*
G75*
G02*
X152904700Y-110609400I0J250000D01*
G01*
X152904700Y-109659400D01*
G75*
G02*
X153154700Y-109409400I250000J0D01*
G01*
X153829700Y-109409400D01*
G75*
G02*
X154079700Y-109659400I0J-250000D01*
G01*
G37*
G36*
G01*
X156154700Y-109659400D02*
X156154700Y-110609400D01*
G75*
G02*
X155904700Y-110859400I-250000J0D01*
G01*
X155229700Y-110859400D01*
G75*
G02*
X154979700Y-110609400I0J250000D01*
G01*
X154979700Y-109659400D01*
G75*
G02*
X155229700Y-109409400I250000J0D01*
G01*
X155904700Y-109409400D01*
G75*
G02*
X156154700Y-109659400I0J-250000D01*
G01*
G37*
%TD*%
D23*
%TO.C,J2*%
X139791680Y-74858760D03*
X144431680Y-74858760D03*
D24*
X140986680Y-72628760D03*
X143236680Y-72628760D03*
D25*
X140811680Y-75278760D03*
X141461680Y-75278760D03*
X142111680Y-75278760D03*
X142761680Y-75278760D03*
X143411680Y-75278760D03*
%TD*%
M02*
