M48
; DRILL file {KiCad (5.1.9)-1} date 04/19/21 10:41:23
; FORMAT={-:-/ absolute / inch / decimal}
; #@! TF.CreationDate,2021-04-19T10:41:23+09:00
; #@! TF.GenerationSoftware,Kicad,Pcbnew,(5.1.9)-1
; #@! TF.FileFunction,Plated,1,4,PTH
FMAT,2
INCH
T1C0.0118
T2C0.0157
T3C0.0177
T4C0.0197
T5C0.0276
T6C0.0319
T7C0.0394
T8C0.0402
%
G90
G05
T1
X4.035Y-5.331
X4.035Y-5.4326
X4.1366Y-5.331
X4.1426Y-5.434
X4.181Y-3.399
X4.184Y-4.259
X4.185Y-4.36
X4.185Y-4.4616
X4.185Y-4.5631
X4.2381Y-5.331
X4.2441Y-5.434
X4.2826Y-3.399
X4.3397Y-5.331
X4.3457Y-5.434
X4.3841Y-3.399
X4.4Y-4.62
X4.524Y-3.857
X4.574Y-5.003
X4.577Y-3.806
X4.5796Y-3.8578
X4.585Y-4.0434
X4.601Y-3.538
X4.64Y-5.063
X4.658Y-3.238
X4.659Y-3.48
X4.6627Y-3.2803
X4.6786Y-3.5104
X4.687Y-3.195
X4.6915Y-3.5374
X4.699Y-5.126
X4.7191Y-3.5489
X4.7421Y-3.5826
X4.745Y-3.679
X4.754Y-3.1743
X4.7575Y-3.2755
X4.7575Y-3.3149
X4.7575Y-3.3542
X4.7575Y-3.3936
X4.7575Y-3.433
X4.7643Y-3.5348
X4.791Y-5.027
X4.795Y-3.5374
X4.7969Y-3.2755
X4.7969Y-3.3149
X4.7969Y-3.3542
X4.7969Y-3.3936
X4.7969Y-3.433
X4.8284Y-3.5392
X4.8349Y-3.8283
X4.8362Y-3.2755
X4.8362Y-3.3149
X4.8362Y-3.3542
X4.8362Y-3.3936
X4.8362Y-3.433
X4.847Y-3.6814
X4.865Y-3.5351
X4.8756Y-3.2755
X4.8756Y-3.3149
X4.8756Y-3.3542
X4.8756Y-3.3936
X4.8756Y-3.433
X4.9126Y-4.3717
X4.915Y-3.2755
X4.915Y-3.3149
X4.915Y-3.3542
X4.915Y-3.3936
X4.915Y-3.433
X4.9276Y-3.8026
X4.98Y-3.1818
X4.9808Y-3.2142
X5.0006Y-3.8284
X5.0011Y-3.0814
X5.0116Y-3.1779
X5.024Y-3.613
X5.029Y-5.12
X5.062Y-3.451
X5.063Y-3.5298
X5.0677Y-5.2898
X5.0677Y-5.3213
X5.0909Y-3.3226
X5.0992Y-5.2898
X5.0992Y-5.3213
X5.121Y-3.431
X5.121Y-3.487
X5.121Y-3.541
X5.121Y-3.596
X5.144Y-4.72
X5.144Y-4.797
X5.144Y-4.879
X5.17Y-4.989
X5.171Y-5.113
X5.174Y-3.81
X5.193Y-4.2872
X5.2114Y-3.0884
X5.2162Y-3.1839
X5.2201Y-5.3636
X5.2201Y-5.3951
X5.231Y-5.049
X5.2516Y-5.3636
X5.2516Y-5.3951
X5.2576Y-4.2633
X5.2607Y-3.2018
X5.2726Y-3.7205
X5.2831Y-5.3636
X5.2831Y-5.3951
X5.332Y-4.443
X5.3362Y-4.0072
X5.356Y-5.01
X5.363Y-4.543
X5.363Y-4.631
X5.3734Y-3.7335
X5.3781Y-3.9618
X5.395Y-4.102
X5.4156Y-3.9381
X5.4201Y-3.7803
X5.4206Y-3.8318
X5.456Y-5.01
X5.5173Y-3.0285
X5.556Y-5.01
X5.6418Y-3.8405
X5.656Y-5.01
X5.6757Y-3.8378
X5.7129Y-3.7528
X5.7284Y-5.1641
X5.7288Y-5.1265
X5.7434Y-3.728
X5.756Y-5.01
X5.767Y-4.602
X5.7722Y-5.1261
X5.7722Y-5.163
X5.8377Y-2.9528
X5.8512Y-3.9721
X5.8663Y-3.1457
X5.874Y-5.01
X5.8992Y-5.2563
X5.8992Y-5.2878
X5.8992Y-5.3193
X5.904Y-3.1456
X5.92Y-4.3751
X5.9307Y-5.2563
X5.9307Y-5.2878
X5.9307Y-5.3193
X5.9414Y-4.3127
X5.9433Y-2.9544
X5.945Y-5.068
X5.947Y-4.3523
X5.9622Y-5.2563
X5.9622Y-5.2878
X5.9622Y-5.3193
X5.965Y-4.2891
X5.9709Y-3.8431
X5.9927Y-4.2674
X6.0214Y-4.5833
X6.041Y-4.224
X6.0495Y-3.1976
X6.0495Y-3.231
X6.0811Y-3.2755
X6.0818Y-3.1338
X6.088Y-4.052
X6.1148Y-3.965
X6.124Y-4.225
X6.124Y-4.336
X6.1293Y-3.3264
X6.1554Y-3.3719
X6.161Y-4.109
X6.1668Y-4.051
X6.173Y-2.836
X6.174Y-2.996
X6.2119Y-3.6444
X6.2291Y-3.4321
X6.2297Y-3.4676
X6.2798Y-3.5856
X6.2814Y-3.5068
X6.2823Y-3.5379
X6.2834Y-3.4328
X6.2848Y-3.4624
X6.3286Y-3.7216
X6.3286Y-3.755
X6.3293Y-3.6035
X6.3582Y-3.7757
X6.3814Y-3.5826
X6.4915Y-4.1602
X6.501Y-3.807
X6.5249Y-4.1602
X6.601Y-3.807
X6.601Y-3.807
X6.673Y-4.968
X6.6769Y-5.08
X6.6769Y-5.08
X6.701Y-3.807
X6.701Y-3.807
X6.7746Y-4.968
X6.7746Y-4.968
X6.7746Y-4.968
X6.7784Y-5.08
X6.7784Y-5.08
X6.801Y-3.807
X6.801Y-3.807
X6.8761Y-4.968
X6.8761Y-4.968
X6.8761Y-4.968
X6.88Y-5.08
X6.88Y-5.08
X6.901Y-3.807
X6.901Y-3.807
X6.9777Y-4.968
X6.9777Y-4.968
X6.9777Y-4.968
X6.9816Y-5.08
X6.9917Y-3.7263
X6.9956Y-3.7559
X6.9991Y-3.6973
X7.042Y-4.469
X7.076Y-4.47
X7.0767Y-3.7195
X7.0793Y-4.968
X7.0793Y-4.968
X7.0793Y-4.968
X7.0832Y-5.08
X7.1258Y-3.6973
X7.263Y-4.433
X7.263Y-4.4645
X7.2945Y-4.433
X7.2945Y-4.4645
X7.371Y-2.853
X7.673Y-2.849
X8.092Y-3.281
X8.092Y-3.381
X8.092Y-3.481
X8.092Y-3.581
X8.092Y-3.681
T2
X3.9621Y-3.5492
X3.9621Y-3.5992
X4.0121Y-3.5492
X4.0121Y-3.5992
X4.0621Y-3.5492
X4.0621Y-3.5992
X4.1617Y-3.3245
X4.1636Y-4.0318
X4.1647Y-4.0843
X4.1647Y-4.1382
X4.2105Y-4.0312
X4.2113Y-4.0867
X4.2121Y-4.1406
X4.2806Y-2.8437
X4.2806Y-2.8937
X4.2806Y-2.9437
X4.3306Y-2.8437
X4.3306Y-2.8937
X4.3306Y-2.9437
X4.3626Y-3.0349
X4.3806Y-2.8437
X4.3806Y-2.8937
X4.3806Y-2.9437
X4.4135Y-3.4909
X4.4614Y-3.4436
X4.48Y-4.55
X4.4803Y-3.5618
X4.4803Y-3.6118
X4.4803Y-3.6618
X4.5058Y-3.4014
X4.5176Y-3.2296
X4.5303Y-3.5618
X4.5303Y-3.6118
X4.5303Y-3.6618
X4.5734Y-4.2752
X4.5734Y-4.3252
X4.5745Y-3.0243
X4.6054Y-3.2318
X4.6234Y-4.2752
X4.6234Y-4.3252
X4.6734Y-4.2752
X4.6734Y-4.3252
X4.7791Y-3.1058
X4.997Y-4.7634
X4.9978Y-4.8119
X4.999Y-4.8596
X4.9991Y-4.956
X4.9991Y-5.006
X4.9991Y-5.056
X5.047Y-4.7634
X5.0488Y-4.8109
X5.049Y-4.8596
X5.0491Y-4.956
X5.0491Y-5.006
X5.0491Y-5.056
X5.097Y-4.7634
X5.0982Y-4.8111
X5.099Y-4.8596
X5.0991Y-4.956
X5.0991Y-5.006
X5.0991Y-5.056
X5.1123Y-2.9815
X5.1123Y-3.0315
X5.1623Y-2.9815
X5.1623Y-3.0315
X5.185Y-3.42
X5.1875Y-3.515
X5.208Y-4.631
X5.2123Y-2.9815
X5.2123Y-3.0315
X5.2623Y-2.9815
X5.2623Y-3.0315
X5.383Y-3.364
X5.44Y-4.33
X5.8175Y-3.5491
X6.009Y-4.0595
X6.194Y-4.728
X6.2823Y-3.6823
X6.6903Y-4.268
X6.7317Y-4.268
X6.805Y-4.7879
X6.8296Y-3.4291
X6.831Y-3.464
X6.8513Y-4.7874
X6.8785Y-3.4305
X6.8785Y-3.4652
X6.8946Y-4.7881
X6.934Y-4.788
X6.9753Y-3.1534
X6.9831Y-3.5737
X7.1172Y-3.3613
X7.1233Y-4.3691
X7.1405Y-3.8286
X7.1985Y-3.5531
X7.25Y-3.99
X7.25Y-3.99
X7.25Y-3.99
X7.25Y-4.09
X7.25Y-4.09
X7.25Y-4.09
X7.35Y-3.99
X7.35Y-3.99
X7.35Y-3.99
X7.35Y-4.09
X7.35Y-4.09
X7.35Y-4.09
X7.45Y-3.99
X7.45Y-3.99
X7.45Y-3.99
X7.45Y-4.09
X7.45Y-4.09
X7.45Y-4.09
X7.55Y-3.99
X7.55Y-3.99
X7.55Y-3.99
X7.55Y-4.09
X7.55Y-4.09
X7.55Y-4.09
X7.5725Y-3.8921
X7.65Y-3.99
X7.65Y-3.99
X7.65Y-4.09
X7.65Y-4.09
T4
X5.008Y-4.496
X5.008Y-4.546
X5.058Y-4.496
X5.058Y-4.546
X5.108Y-4.496
X5.108Y-4.546
X5.158Y-4.496
X5.158Y-4.546
X5.208Y-4.496
X5.208Y-4.546
T5
X7.1832Y-3.004
X7.2832Y-3.004
X7.478Y-3.002
X7.578Y-3.002
X7.76Y-3.01
X7.86Y-3.01
T6
X7.3321Y-3.3758
X7.3321Y-3.6758
X7.4321Y-3.3758
X7.4321Y-3.6758
X7.5321Y-3.3758
X7.5321Y-3.6758
X7.6321Y-3.3758
X7.6321Y-3.6758
X7.7321Y-3.3758
X7.7321Y-3.6758
X7.8321Y-3.3758
X7.8321Y-3.6758
T7
X4.005Y-2.977
X5.8901Y-4.8716
X6.9978Y-3.0303
X6.9986Y-2.8898
X7.285Y-5.408
X7.437Y-5.41
X8.0554Y-2.9106
X8.0554Y-3.0994
T8
X5.2954Y-4.8132
X5.2954Y-4.9132
X5.3954Y-4.8132
X5.3954Y-4.9132
X5.4954Y-4.8132
X5.4954Y-4.9132
X5.5045Y-3.3045
X5.5045Y-3.4045
X5.5045Y-3.5045
X5.5045Y-3.6045
X5.5045Y-3.7045
X5.5954Y-4.8132
X5.5954Y-4.9132
X5.6045Y-3.3045
X5.6045Y-3.4045
X5.6045Y-3.5045
X5.6045Y-3.6045
X5.6045Y-3.7045
X5.6954Y-4.8132
X5.6954Y-4.9132
T3
G00X5.4542Y-2.8751
M15
G01X5.4542Y-2.8437
M16
G05
G00X5.7357Y-2.8751
M15
G01X5.7357Y-2.8437
M16
G05
T7
G00X4.0019Y-4.9443
M15
G01X4.0019Y-4.8656
M16
G05
G00X4.1594Y-5.09
M15
G01X4.0806Y-5.09
M16
G05
G00X4.2381Y-4.9542
M15
G01X4.2381Y-4.8557
M16
G05
T0
M30
